<?xml version="1.0" encoding="UTF-8" standalone="no"?>
<!DOCTYPE svg PUBLIC "-//W3C//DTD SVG 1.1//EN"
 "http://www.w3.org/Graphics/SVG/1.1/DTD/svg11.dtd">
<!-- Generated by graphviz version 2.28.0 (20120228.1926)
 -->
<!-- Title: Niveaux Pages: 1 -->
<svg width="160pt" height="220pt"
 viewBox="0.00 0.00 160.00 220.00" xmlns="http://www.w3.org/2000/svg" xmlns:xlink="http://www.w3.org/1999/xlink">
<g id="graph1" class="graph" transform="scale(1 1) rotate(0) translate(4 216)">
<title>Niveaux</title>
<polygon fill="white" stroke="white" points="-4,5 -4,-216 157,-216 157,5 -4,5"/>
<!-- a -->
<g id="node1" class="node"><title>a</title>
<polygon fill="none" stroke="black" points="136.25,-212 15.75,-212 15.75,-176 136.25,-176 136.25,-212"/>
<text text-anchor="middle" x="76" y="-190.3" font-family="Times,serif" font-size="14.00">Working Directory</text>
</g>
<!-- b -->
<g id="node2" class="node"><title>b</title>
<polygon fill="none" stroke="black" points="152,-124 0,-124 0,-88 152,-88 152,-124"/>
<text text-anchor="middle" x="76" y="-102.3" font-family="Times,serif" font-size="14.00">Index (commit en cours)</text>
</g>
<!-- a&#45;&gt;b -->
<g id="edge2" class="edge"><title>a&#45;&gt;b</title>
<path fill="none" stroke="black" d="M76,-175.597C76,-163.746 76,-147.817 76,-134.292"/>
<polygon fill="black" stroke="black" points="79.5001,-134.084 76,-124.084 72.5001,-134.084 79.5001,-134.084"/>
<text text-anchor="middle" x="97" y="-146.3" font-family="Times,serif" font-size="14.00"> git add</text>
</g>
<!-- c -->
<g id="node3" class="node"><title>c</title>
<polygon fill="none" stroke="black" points="144.25,-36 7.75,-36 7.75,-0 144.25,-0 144.25,-36"/>
<text text-anchor="middle" x="76" y="-14.3" font-family="Times,serif" font-size="14.00">Repository (commits)</text>
</g>
<!-- b&#45;&gt;c -->
<g id="edge4" class="edge"><title>b&#45;&gt;c</title>
<path fill="none" stroke="black" d="M76,-87.5966C76,-75.7459 76,-59.8169 76,-46.2917"/>
<polygon fill="black" stroke="black" points="79.5001,-46.084 76,-36.084 72.5001,-46.084 79.5001,-46.084"/>
<text text-anchor="middle" x="108.5" y="-58.3" font-family="Times,serif" font-size="14.00"> git commit</text>
</g>
</g>
</svg>
