<?xml version="1.0" encoding="UTF-8" standalone="no"?>
<!DOCTYPE svg PUBLIC "-//W3C//DTD SVG 1.1//EN"
 "http://www.w3.org/Graphics/SVG/1.1/DTD/svg11.dtd">
<!-- Generated by graphviz version 2.28.0 (20120228.1926)
 -->
<!-- Title: G Pages: 1 -->
<svg width="976pt" height="98pt"
 viewBox="0.00 0.00 976.00 98.00" xmlns="http://www.w3.org/2000/svg" xmlns:xlink="http://www.w3.org/1999/xlink">
<g id="graph1" class="graph" transform="scale(1 1) rotate(0) translate(4 94)">
<title>G</title>
<polygon fill="white" stroke="white" points="-4,5 -4,-94 973,-94 973,5 -4,5"/>
<!-- 5c071a6b2c -->
<g id="node1" class="node"><title>5c071a6b2c</title>
<ellipse fill="none" stroke="black" cx="54" cy="-46" rx="53.0913" ry="18"/>
<text text-anchor="middle" x="54" y="-42.3" font-family="Times,serif" font-size="14.00">5c071a6b2c</text>
</g>
<!-- 968bda3251 -->
<g id="node3" class="node"><title>968bda3251</title>
<ellipse fill="none" stroke="black" cx="198" cy="-46" rx="53.8905" ry="18"/>
<text text-anchor="middle" x="198" y="-42.3" font-family="Times,serif" font-size="14.00">968bda3251</text>
</g>
<!-- 5c071a6b2c&#45;&gt;968bda3251 -->
<g id="edge2" class="edge"><title>5c071a6b2c&#45;&gt;968bda3251</title>
<path fill="none" stroke="black" d="M107.472,-46C115.99,-46 124.89,-46 133.634,-46"/>
<polygon fill="black" stroke="black" points="133.795,-49.5001 143.795,-46 133.795,-42.5001 133.795,-49.5001"/>
</g>
<!-- 103dba9760 -->
<g id="node4" class="node"><title>103dba9760</title>
<ellipse fill="none" stroke="black" cx="342" cy="-70" rx="53.8905" ry="18"/>
<text text-anchor="middle" x="342" y="-66.3" font-family="Times,serif" font-size="14.00">103dba9760</text>
</g>
<!-- 968bda3251&#45;&gt;103dba9760 -->
<g id="edge3" class="edge"><title>968bda3251&#45;&gt;103dba9760</title>
<path fill="none" stroke="black" d="M246.679,-54.0584C258.387,-56.0372 271.047,-58.1769 283.175,-60.2268"/>
<polygon fill="black" stroke="black" points="282.762,-63.7065 293.205,-61.922 283.928,-56.8044 282.762,-63.7065"/>
</g>
<!-- 9754d40473 -->
<g id="node10" class="node"><title>9754d40473</title>
<ellipse fill="none" stroke="black" cx="487" cy="-18" rx="54.6905" ry="18"/>
<text text-anchor="middle" x="487" y="-14.3" font-family="Times,serif" font-size="14.00">9754d40473</text>
</g>
<!-- 968bda3251&#45;&gt;9754d40473 -->
<g id="edge9" class="edge"><title>968bda3251&#45;&gt;9754d40473</title>
<path fill="none" stroke="black" d="M249.979,-41.0264C298.756,-36.2677 372.394,-29.0835 424.425,-24.0073"/>
<polygon fill="black" stroke="black" points="424.916,-27.4761 434.529,-23.0216 424.236,-20.5092 424.916,-27.4761"/>
</g>
<!-- e974e8334e -->
<g id="node5" class="node"><title>e974e8334e</title>
<ellipse fill="none" stroke="black" cx="487" cy="-72" rx="53.0913" ry="18"/>
<text text-anchor="middle" x="487" y="-68.3" font-family="Times,serif" font-size="14.00">e974e8334e</text>
</g>
<!-- 103dba9760&#45;&gt;e974e8334e -->
<g id="edge4" class="edge"><title>103dba9760&#45;&gt;e974e8334e</title>
<path fill="none" stroke="black" d="M396.248,-70.7447C405.133,-70.869 414.421,-70.9989 423.511,-71.126"/>
<polygon fill="black" stroke="black" points="423.611,-74.6277 433.659,-71.268 423.709,-67.6284 423.611,-74.6277"/>
</g>
<!-- cf41c59ef2 -->
<g id="node6" class="node"><title>cf41c59ef2</title>
<ellipse fill="none" stroke="black" cx="632" cy="-72" rx="50.0912" ry="18"/>
<text text-anchor="middle" x="632" y="-68.3" font-family="Times,serif" font-size="14.00">cf41c59ef2</text>
</g>
<!-- e974e8334e&#45;&gt;cf41c59ef2 -->
<g id="edge5" class="edge"><title>e974e8334e&#45;&gt;cf41c59ef2</title>
<path fill="none" stroke="black" d="M540.436,-72C550.599,-72 561.317,-72 571.682,-72"/>
<polygon fill="black" stroke="black" points="571.897,-75.5001 581.897,-72 571.897,-68.5001 571.897,-75.5001"/>
</g>
<!-- 35ee8ce6b6 -->
<g id="node7" class="node"><title>35ee8ce6b6</title>
<ellipse fill="none" stroke="black" cx="775" cy="-45" rx="52.7911" ry="18"/>
<text text-anchor="middle" x="775" y="-41.3" font-family="Times,serif" font-size="14.00">35ee8ce6b6</text>
</g>
<!-- cf41c59ef2&#45;&gt;35ee8ce6b6 -->
<g id="edge6" class="edge"><title>cf41c59ef2&#45;&gt;35ee8ce6b6</title>
<path fill="none" stroke="black" d="M676.455,-63.6788C689.738,-61.1353 704.531,-58.3026 718.5,-55.6277"/>
<polygon fill="black" stroke="black" points="719.329,-59.0326 728.492,-53.7143 718.012,-52.1575 719.329,-59.0326"/>
</g>
<!-- 8f48c3097f -->
<g id="node8" class="node"><title>8f48c3097f</title>
<ellipse fill="none" stroke="black" cx="916" cy="-45" rx="51.1914" ry="18"/>
<text text-anchor="middle" x="916" y="-41.3" font-family="Times,serif" font-size="14.00">8f48c3097f</text>
</g>
<!-- 35ee8ce6b6&#45;&gt;8f48c3097f -->
<g id="edge7" class="edge"><title>35ee8ce6b6&#45;&gt;8f48c3097f</title>
<path fill="none" stroke="black" d="M827.758,-45C836.413,-45 845.461,-45 854.315,-45"/>
<polygon fill="black" stroke="black" points="854.584,-48.5001 864.584,-45 854.584,-41.5001 854.584,-48.5001"/>
</g>
<!-- 9e59700d33 -->
<g id="node11" class="node"><title>9e59700d33</title>
<ellipse fill="none" stroke="black" cx="632" cy="-18" rx="53.8905" ry="18"/>
<text text-anchor="middle" x="632" y="-14.3" font-family="Times,serif" font-size="14.00">9e59700d33</text>
</g>
<!-- 9754d40473&#45;&gt;9e59700d33 -->
<g id="edge10" class="edge"><title>9754d40473&#45;&gt;9e59700d33</title>
<path fill="none" stroke="black" d="M541.655,-18C550.199,-18 559.107,-18 567.846,-18"/>
<polygon fill="black" stroke="black" points="567.995,-21.5001 577.995,-18 567.995,-14.5001 567.995,-21.5001"/>
</g>
<!-- 9e59700d33&#45;&gt;35ee8ce6b6 -->
<g id="edge11" class="edge"><title>9e59700d33&#45;&gt;35ee8ce6b6</title>
<path fill="none" stroke="black" d="M679.169,-26.8408C691.841,-29.2674 705.709,-31.9229 718.832,-34.4359"/>
<polygon fill="black" stroke="black" points="718.21,-37.8803 728.69,-36.3235 719.526,-31.0052 718.21,-37.8803"/>
</g>
</g>
</svg>
