<?xml version="1.0" encoding="UTF-8" standalone="no"?>
<!DOCTYPE svg PUBLIC "-//W3C//DTD SVG 1.1//EN"
 "http://www.w3.org/Graphics/SVG/1.1/DTD/svg11.dtd">
<!-- Generated by graphviz version 2.28.0 (20120228.1926)
 -->
<!-- Title: Branchement et fusion Pages: 1 -->
<svg width="968pt" height="98pt"
 viewBox="0.00 0.00 968.00 98.00" xmlns="http://www.w3.org/2000/svg" xmlns:xlink="http://www.w3.org/1999/xlink">
<g id="graph1" class="graph" transform="scale(1 1) rotate(0) translate(4 94)">
<title>Branchement et fusion</title>
<polygon fill="white" stroke="white" points="-4,5 -4,-94 965,-94 965,5 -4,5"/>
<!-- 5c071a6b2c -->
<g id="node2" class="node"><title>5c071a6b2c</title>
<ellipse fill="none" stroke="black" cx="54" cy="-72" rx="53.0913" ry="18"/>
<text text-anchor="middle" x="54" y="-68.3" font-family="Times,serif" font-size="14.00">5c071a6b2c</text>
</g>
<!-- 968bda3251 -->
<g id="node4" class="node"><title>968bda3251</title>
<ellipse fill="none" stroke="black" cx="198" cy="-72" rx="53.8905" ry="18"/>
<text text-anchor="middle" x="198" y="-68.3" font-family="Times,serif" font-size="14.00">968bda3251</text>
</g>
<!-- 5c071a6b2c&#45;&gt;968bda3251 -->
<g id="edge3" class="edge"><title>5c071a6b2c&#45;&gt;968bda3251</title>
<path fill="none" stroke="black" d="M107.472,-72C115.99,-72 124.89,-72 133.634,-72"/>
<polygon fill="black" stroke="black" points="133.795,-75.5001 143.795,-72 133.795,-68.5001 133.795,-75.5001"/>
</g>
<!-- 103dba9760 -->
<g id="node5" class="node"><title>103dba9760</title>
<ellipse fill="none" stroke="black" cx="343" cy="-72" rx="53.8905" ry="18"/>
<text text-anchor="middle" x="343" y="-68.3" font-family="Times,serif" font-size="14.00">103dba9760</text>
</g>
<!-- 968bda3251&#45;&gt;103dba9760 -->
<g id="edge4" class="edge"><title>968bda3251&#45;&gt;103dba9760</title>
<path fill="none" stroke="black" d="M252.248,-72C260.809,-72 269.744,-72 278.517,-72"/>
<polygon fill="black" stroke="black" points="278.708,-75.5001 288.708,-72 278.708,-68.5001 278.708,-75.5001"/>
</g>
<!-- 9754d40473 -->
<g id="node11" class="node"><title>9754d40473</title>
<ellipse fill="none" stroke="black" cx="343" cy="-18" rx="54.6905" ry="18"/>
<text text-anchor="middle" x="343" y="-14.3" font-family="Times,serif" font-size="14.00">9754d40473</text>
</g>
<!-- 968bda3251&#45;&gt;9754d40473 -->
<g id="edge10" class="edge"><title>968bda3251&#45;&gt;9754d40473</title>
<path fill="none" stroke="black" d="M234.348,-58.6517C253.113,-51.5659 276.385,-42.7777 296.486,-35.1872"/>
<polygon fill="black" stroke="black" points="297.946,-38.377 306.065,-31.5698 295.473,-31.8283 297.946,-38.377"/>
</g>
<!-- e974e8334e -->
<g id="node6" class="node"><title>e974e8334e</title>
<ellipse fill="none" stroke="black" cx="488" cy="-72" rx="53.0913" ry="18"/>
<text text-anchor="middle" x="488" y="-68.3" font-family="Times,serif" font-size="14.00">e974e8334e</text>
</g>
<!-- 103dba9760&#45;&gt;e974e8334e -->
<g id="edge5" class="edge"><title>103dba9760&#45;&gt;e974e8334e</title>
<path fill="none" stroke="black" d="M397.248,-72C406.133,-72 415.421,-72 424.511,-72"/>
<polygon fill="black" stroke="black" points="424.659,-75.5001 434.659,-72 424.659,-68.5001 424.659,-75.5001"/>
</g>
<!-- cf41c59ef2 -->
<g id="node7" class="node"><title>cf41c59ef2</title>
<ellipse fill="none" stroke="black" cx="628" cy="-72" rx="50.0912" ry="18"/>
<text text-anchor="middle" x="628" y="-68.3" font-family="Times,serif" font-size="14.00">cf41c59ef2</text>
</g>
<!-- e974e8334e&#45;&gt;cf41c59ef2 -->
<g id="edge6" class="edge"><title>e974e8334e&#45;&gt;cf41c59ef2</title>
<path fill="none" stroke="black" d="M541.566,-72C550.106,-72 559.003,-72 567.691,-72"/>
<polygon fill="black" stroke="black" points="567.76,-75.5001 577.76,-72 567.76,-68.5001 567.76,-75.5001"/>
</g>
<!-- 35ee8ce6b6 -->
<g id="node8" class="node"><title>35ee8ce6b6</title>
<ellipse fill="none" stroke="black" cx="767" cy="-72" rx="52.7911" ry="18"/>
<text text-anchor="middle" x="767" y="-68.3" font-family="Times,serif" font-size="14.00">35ee8ce6b6</text>
</g>
<!-- cf41c59ef2&#45;&gt;35ee8ce6b6 -->
<g id="edge7" class="edge"><title>cf41c59ef2&#45;&gt;35ee8ce6b6</title>
<path fill="none" stroke="black" d="M678.073,-72C686.461,-72 695.273,-72 703.946,-72"/>
<polygon fill="black" stroke="black" points="704.029,-75.5001 714.029,-72 704.029,-68.5001 704.029,-75.5001"/>
</g>
<!-- 8f48c3097f -->
<g id="node9" class="node"><title>8f48c3097f</title>
<ellipse fill="none" stroke="black" cx="908" cy="-72" rx="51.1914" ry="18"/>
<text text-anchor="middle" x="908" y="-68.3" font-family="Times,serif" font-size="14.00">8f48c3097f</text>
</g>
<!-- 35ee8ce6b6&#45;&gt;8f48c3097f -->
<g id="edge8" class="edge"><title>35ee8ce6b6&#45;&gt;8f48c3097f</title>
<path fill="none" stroke="black" d="M819.758,-72C828.413,-72 837.461,-72 846.315,-72"/>
<polygon fill="black" stroke="black" points="846.584,-75.5001 856.584,-72 846.584,-68.5001 846.584,-75.5001"/>
</g>
<!-- 9e59700d33 -->
<g id="node12" class="node"><title>9e59700d33</title>
<ellipse fill="none" stroke="black" cx="488" cy="-18" rx="53.8905" ry="18"/>
<text text-anchor="middle" x="488" y="-14.3" font-family="Times,serif" font-size="14.00">9e59700d33</text>
</g>
<!-- 9754d40473&#45;&gt;9e59700d33 -->
<g id="edge14" class="edge"><title>9754d40473&#45;&gt;9e59700d33</title>
<path fill="none" stroke="black" d="M397.655,-18C406.199,-18 415.107,-18 423.846,-18"/>
<polygon fill="black" stroke="black" points="423.995,-21.5001 433.995,-18 423.995,-14.5001 423.995,-21.5001"/>
</g>
<!-- 9e59700d33&#45;&gt;35ee8ce6b6 -->
<g id="edge12" class="edge"><title>9e59700d33&#45;&gt;35ee8ce6b6</title>
<path fill="none" stroke="black" d="M539.926,-23.0972C578.19,-27.4519 631.742,-34.6656 678,-45 691.547,-48.0265 706.032,-52.1075 719.258,-56.179"/>
<polygon fill="black" stroke="black" points="718.502,-59.61 729.091,-59.273 720.603,-52.9328 718.502,-59.61"/>
</g>
</g>
</svg>
