<?xml version="1.0" encoding="UTF-8" standalone="no"?>
<!DOCTYPE svg PUBLIC "-//W3C//DTD SVG 1.1//EN"
 "http://www.w3.org/Graphics/SVG/1.1/DTD/svg11.dtd">
<!-- Generated by graphviz version 2.28.0 (20120228.1926)
 -->
<!-- Title: Fast&#45;forward Pages: 1 -->
<svg width="724pt" height="206pt"
 viewBox="0.00 0.00 724.00 206.00" xmlns="http://www.w3.org/2000/svg" xmlns:xlink="http://www.w3.org/1999/xlink">
<g id="graph1" class="graph" transform="scale(1 1) rotate(0) translate(4 202)">
<title>Fast&#45;forward</title>
<polygon fill="white" stroke="white" points="-4,5 -4,-202 721,-202 721,5 -4,5"/>
<!-- 968bda3251 -->
<g id="node2" class="node"><title>968bda3251</title>
<ellipse fill="none" stroke="black" cx="198" cy="-72" rx="53.8905" ry="18"/>
<text text-anchor="middle" x="198" y="-68.3" font-family="Times,serif" font-size="14.00">968bda3251</text>
</g>
<!-- 9754d40473 -->
<g id="node5" class="node"><title>9754d40473</title>
<ellipse fill="none" stroke="black" cx="343" cy="-126" rx="54.6905" ry="18"/>
<text text-anchor="middle" x="343" y="-122.3" font-family="Times,serif" font-size="14.00">9754d40473</text>
</g>
<!-- 968bda3251&#45;&gt;9754d40473 -->
<g id="edge7" class="edge"><title>968bda3251&#45;&gt;9754d40473</title>
<path fill="none" stroke="black" d="M234.348,-85.3483C253.113,-92.4341 276.385,-101.222 296.486,-108.813"/>
<polygon fill="black" stroke="black" points="295.473,-112.172 306.065,-112.43 297.946,-105.623 295.473,-112.172"/>
</g>
<!-- inviso -->
<!-- 968bda3251&#45;&gt;inviso -->
<!-- oldmh -->
<g id="node3" class="node"><title>oldmh</title>
<polygon fill="red" stroke="red" points="245.5,-36 150.5,-36 150.5,-0 245.5,-0 245.5,-36"/>
<text text-anchor="middle" x="198" y="-14.3" font-family="Times,serif" font-size="14.00">master/HEAD</text>
</g>
<!-- oldmh&#45;&gt;968bda3251 -->
<g id="edge12" class="edge"><title>oldmh&#45;&gt;968bda3251</title>
<path fill="none" stroke="black" d="M198,-36.1406C198,-38.6226 198,-41.1046 198,-43.5865"/>
<polygon fill="black" stroke="black" points="194.5,-43.7901 198,-53.7902 201.5,-43.7902 194.5,-43.7901"/>
</g>
<!-- 9754d40473&#45;&gt;inviso -->
<!-- 9e59700d33 -->
<g id="node15" class="node"><title>9e59700d33</title>
<ellipse fill="none" stroke="black" cx="488" cy="-126" rx="53.8905" ry="18"/>
<text text-anchor="middle" x="488" y="-122.3" font-family="Times,serif" font-size="14.00">9e59700d33</text>
</g>
<!-- 9754d40473&#45;&gt;9e59700d33 -->
<g id="edge9" class="edge"><title>9754d40473&#45;&gt;9e59700d33</title>
<path fill="none" stroke="black" d="M397.655,-126C406.199,-126 415.107,-126 423.846,-126"/>
<polygon fill="black" stroke="black" points="423.995,-129.5 433.995,-126 423.995,-122.5 423.995,-129.5"/>
</g>
<!-- remote/master/HEAD -->
<g id="node8" class="node"><title>remote/master/HEAD</title>
<polygon fill="none" stroke="black" points="715.5,-198 578.5,-198 578.5,-162 715.5,-162 715.5,-198"/>
<text text-anchor="middle" x="647" y="-176.3" font-family="Times,serif" font-size="14.00">remote/master/HEAD</text>
</g>
<!-- 35ee8ce6b6 -->
<g id="node9" class="node"><title>35ee8ce6b6</title>
<ellipse fill="blue" stroke="blue" cx="647" cy="-126" rx="52.7911" ry="18"/>
<text text-anchor="middle" x="647" y="-122.3" font-family="Times,serif" font-size="14.00">35ee8ce6b6</text>
</g>
<!-- remote/master/HEAD&#45;&gt;35ee8ce6b6 -->
<g id="edge14" class="edge"><title>remote/master/HEAD&#45;&gt;35ee8ce6b6</title>
<path fill="none" stroke="black" d="M647,-161.79C647,-159.308 647,-156.826 647,-154.344"/>
<polygon fill="black" stroke="black" points="650.5,-154.141 647,-144.141 643.5,-154.141 650.5,-154.141"/>
</g>
<!-- newmh -->
<g id="node10" class="node"><title>newmh</title>
<polygon fill="blue" stroke="blue" points="694.5,-90 599.5,-90 599.5,-54 694.5,-54 694.5,-90"/>
<text text-anchor="middle" x="647" y="-68.3" font-family="Times,serif" font-size="14.00">master/HEAD</text>
</g>
<!-- newmh&#45;&gt;35ee8ce6b6 -->
<g id="edge16" class="edge"><title>newmh&#45;&gt;35ee8ce6b6</title>
<path fill="none" stroke="black" d="M647,-90.1406C647,-92.6226 647,-95.1046 647,-97.5865"/>
<polygon fill="black" stroke="black" points="643.5,-97.7901 647,-107.79 650.5,-97.7902 643.5,-97.7901"/>
</g>
<!-- 5c071a6b2c -->
<g id="node11" class="node"><title>5c071a6b2c</title>
<ellipse fill="none" stroke="black" cx="54" cy="-72" rx="53.0913" ry="18"/>
<text text-anchor="middle" x="54" y="-68.3" font-family="Times,serif" font-size="14.00">5c071a6b2c</text>
</g>
<!-- 5c071a6b2c&#45;&gt;968bda3251 -->
<g id="edge5" class="edge"><title>5c071a6b2c&#45;&gt;968bda3251</title>
<path fill="none" stroke="black" d="M107.472,-72C115.99,-72 124.89,-72 133.634,-72"/>
<polygon fill="black" stroke="black" points="133.795,-75.5001 143.795,-72 133.795,-68.5001 133.795,-75.5001"/>
</g>
<!-- 9e59700d33&#45;&gt;35ee8ce6b6 -->
<g id="edge10" class="edge"><title>9e59700d33&#45;&gt;35ee8ce6b6</title>
<path fill="none" stroke="black" d="M542.153,-126C555.551,-126 570.053,-126 583.849,-126"/>
<polygon fill="black" stroke="black" points="584.232,-129.5 594.232,-126 584.232,-122.5 584.232,-129.5"/>
</g>
</g>
</svg>
