<?xml version="1.0" encoding="UTF-8" standalone="no"?>
<!DOCTYPE svg PUBLIC "-//W3C//DTD SVG 1.1//EN"
 "http://www.w3.org/Graphics/SVG/1.1/DTD/svg11.dtd">
<!-- Generated by graphviz version 2.28.0 (20120228.1926)
 -->
<!-- Title: Classes utilisées par Git Pages: 1 -->
<svg width="422pt" height="130pt"
 viewBox="0.00 0.00 422.00 130.00" xmlns="http://www.w3.org/2000/svg" xmlns:xlink="http://www.w3.org/1999/xlink">
<g id="graph1" class="graph" transform="scale(1 1) rotate(0) translate(4 126)">
<title>Classes utilisées par Git</title>
<polygon fill="white" stroke="white" points="-4,5 -4,-126 419,-126 419,5 -4,5"/>
<!-- O -->
<g id="node2" class="node"><title>O</title>
<polygon fill="none" stroke="black" points="154,-75 154,-121 224,-121 224,-75 154,-75"/>
<text text-anchor="middle" x="189" y="-105.8" font-family="Times,serif" font-size="14.00">GitObject</text>
<polyline fill="none" stroke="black" points="154,-98 224,-98 "/>
<text text-anchor="middle" x="189" y="-82.8" font-family="Times,serif" font-size="14.00">ref (sha1)</text>
</g>
<!-- Tree -->
<g id="node4" class="node"><title>Tree</title>
<polygon fill="none" stroke="black" points="270,-36 216,-36 216,-0 270,-0 270,-36"/>
<text text-anchor="middle" x="243" y="-14.3" font-family="Times,serif" font-size="14.00">Tree</text>
</g>
<!-- O&#45;&gt;Tree -->
<g id="edge4" class="edge"><title>O&#45;&gt;Tree</title>
<path fill="none" stroke="black" d="M210.123,-66.4897C217.234,-56.218 224.917,-45.1205 231.066,-36.2382"/>
<polygon fill="none" stroke="black" points="207.144,-64.6428 204.33,-74.857 212.9,-68.6273 207.144,-64.6428"/>
</g>
<!-- Tag -->
<g id="node5" class="node"><title>Tag</title>
<polygon fill="none" stroke="black" points="54,-36 0,-36 0,-0 54,-0 54,-36"/>
<text text-anchor="middle" x="27" y="-14.3" font-family="Times,serif" font-size="14.00">Tag</text>
</g>
<!-- O&#45;&gt;Tag -->
<g id="edge10" class="edge"><title>O&#45;&gt;Tag</title>
<path fill="none" stroke="black" d="M144.738,-75.6888C115.737,-61.7254 78.7641,-43.9235 54.061,-32.0294"/>
<polygon fill="none" stroke="black" points="143.32,-78.8905 153.848,-80.0752 146.357,-72.5834 143.32,-78.8905"/>
</g>
<!-- Blob -->
<g id="node6" class="node"><title>Blob</title>
<polygon fill="none" stroke="black" points="414,-36 360,-36 360,-0 414,-0 414,-36"/>
<text text-anchor="middle" x="387" y="-14.3" font-family="Times,serif" font-size="14.00">Blob</text>
</g>
<!-- O&#45;&gt;Blob -->
<g id="edge6" class="edge"><title>O&#45;&gt;Blob</title>
<path fill="none" stroke="black" d="M233.888,-79.3168C272.66,-64.043 327.416,-42.4726 359.857,-29.6928"/>
<polygon fill="none" stroke="black" points="232.42,-76.1334 224.398,-83.0552 234.985,-82.6463 232.42,-76.1334"/>
</g>
<!-- Commit -->
<g id="node7" class="node"><title>Commit</title>
<polygon fill="none" stroke="black" points="165.5,-36 104.5,-36 104.5,-0 165.5,-0 165.5,-36"/>
<text text-anchor="middle" x="135" y="-14.3" font-family="Times,serif" font-size="14.00">Commit</text>
</g>
<!-- O&#45;&gt;Commit -->
<g id="edge8" class="edge"><title>O&#45;&gt;Commit</title>
<path fill="none" stroke="black" d="M167.877,-66.4897C160.766,-56.218 153.083,-45.1205 146.934,-36.2382"/>
<polygon fill="none" stroke="black" points="165.1,-68.6273 173.67,-74.857 170.856,-64.6428 165.1,-68.6273"/>
</g>
<!-- Tree&#45;&gt;Tree -->
<g id="edge12" class="edge"><title>Tree&#45;&gt;Tree</title>
<path fill="none" stroke="black" d="M270.241,-24.7434C280.024,-24.8884 288,-22.6406 288,-18 288,-15.1721 285.038,-13.2328 280.51,-12.182"/>
<polygon fill="black" stroke="black" points="270.241,-11.2566 280.604,-7.6723 275.221,-11.7054 280.2,-12.1541 280.2,-12.1541 280.2,-12.1541 275.221,-11.7054 279.797,-16.636 270.241,-11.2566 270.241,-11.2566"/>
<text text-anchor="middle" x="299" y="-14.3" font-family="Times,serif" font-size="14.00">0..*</text>
</g>
<!-- Tree&#45;&gt;Blob -->
<g id="edge14" class="edge"><title>Tree&#45;&gt;Blob</title>
<path fill="none" stroke="black" d="M270.085,-18C292.47,-18 324.497,-18 349.373,-18"/>
<polygon fill="black" stroke="black" points="359.547,-18 349.547,-22.5001 354.547,-18 349.547,-18.0001 349.547,-18.0001 349.547,-18.0001 354.547,-18 349.547,-13.5001 359.547,-18 359.547,-18"/>
<text text-anchor="middle" x="315" y="-24.8" font-family="Times,serif" font-size="14.00">0..* 1</text>
</g>
<!-- Tag&#45;&gt;Commit -->
<g id="edge18" class="edge"><title>Tag&#45;&gt;Commit</title>
<path fill="none" stroke="black" d="M54.253,-18C66.2839,-18 80.6847,-18 93.9718,-18"/>
<polygon fill="black" stroke="black" points="104.322,-18 94.3224,-22.5001 99.3224,-18 94.3224,-18.0001 94.3224,-18.0001 94.3224,-18.0001 99.3224,-18 94.3223,-13.5001 104.322,-18 104.322,-18"/>
<text text-anchor="middle" x="79" y="-24.8" font-family="Times,serif" font-size="14.00">0..* 1</text>
</g>
<!-- Commit&#45;&gt;Tree -->
<g id="edge16" class="edge"><title>Commit&#45;&gt;Tree</title>
<path fill="none" stroke="black" d="M165.66,-18C178.158,-18 192.723,-18 205.821,-18"/>
<polygon fill="black" stroke="black" points="215.943,-18 205.943,-22.5001 210.943,-18 205.943,-18.0001 205.943,-18.0001 205.943,-18.0001 210.943,-18 205.943,-13.5001 215.943,-18 215.943,-18"/>
<text text-anchor="middle" x="190.5" y="-24.8" font-family="Times,serif" font-size="14.00">1..* 1</text>
</g>
</g>
</svg>
