<?xml version="1.0" encoding="UTF-8" standalone="no"?>
<!DOCTYPE svg PUBLIC "-//W3C//DTD SVG 1.1//EN"
 "http://www.w3.org/Graphics/SVG/1.1/DTD/svg11.dtd">
<!-- Generated by graphviz version 2.28.0 (20120228.1926)
 -->
<!-- Title: Classes utilisées par Git Pages: 1 -->
<svg width="407pt" height="130pt"
 viewBox="0.00 0.00 407.00 130.00" xmlns="http://www.w3.org/2000/svg" xmlns:xlink="http://www.w3.org/1999/xlink">
<g id="graph1" class="graph" transform="scale(1 1) rotate(0) translate(4 126)">
<title>Classes utilisées par Git</title>
<polygon fill="white" stroke="white" points="-4,5 -4,-126 404,-126 404,5 -4,5"/>
<!-- O -->
<g id="node2" class="node"><title>O</title>
<polygon fill="none" stroke="black" points="143,-75 143,-121 213,-121 213,-75 143,-75"/>
<text text-anchor="middle" x="178" y="-105.8" font-family="Times,serif" font-size="14.00">GitObject</text>
<polyline fill="none" stroke="black" points="143,-98 213,-98 "/>
<text text-anchor="middle" x="178" y="-82.8" font-family="Times,serif" font-size="14.00">ref (sha1)</text>
</g>
<!-- Tree -->
<g id="node4" class="node"><title>Tree</title>
<polygon fill="none" stroke="black" points="256,-36 202,-36 202,-0 256,-0 256,-36"/>
<text text-anchor="middle" x="229" y="-14.3" font-family="Times,serif" font-size="14.00">Tree</text>
</g>
<!-- O&#45;&gt;Tree -->
<g id="edge4" class="edge"><title>O&#45;&gt;Tree</title>
<path fill="none" stroke="black" d="M198.151,-66.1813C204.81,-55.9963 211.979,-45.0317 217.729,-36.2382"/>
<polygon fill="black" stroke="black" points="195.021,-64.5719 192.478,-74.857 200.88,-68.4026 195.021,-64.5719"/>
</g>
<!-- Tag -->
<g id="node5" class="node"><title>Tag</title>
<polygon fill="none" stroke="black" points="54,-36 0,-36 0,-0 54,-0 54,-36"/>
<text text-anchor="middle" x="27" y="-14.3" font-family="Times,serif" font-size="14.00">Tag</text>
</g>
<!-- O&#45;&gt;Tag -->
<g id="edge10" class="edge"><title>O&#45;&gt;Tag</title>
<path fill="none" stroke="black" d="M133.792,-74.1643C108.059,-60.8714 76.4324,-44.5346 54.3012,-33.1026"/>
<polygon fill="black" stroke="black" points="132.487,-77.4293 142.978,-78.9092 135.7,-71.2101 132.487,-77.4293"/>
</g>
<!-- Blob -->
<g id="node6" class="node"><title>Blob</title>
<polygon fill="none" stroke="black" points="399,-36 345,-36 345,-0 399,-0 399,-36"/>
<text text-anchor="middle" x="372" y="-14.3" font-family="Times,serif" font-size="14.00">Blob</text>
</g>
<!-- O&#45;&gt;Blob -->
<g id="edge6" class="edge"><title>O&#45;&gt;Blob</title>
<path fill="none" stroke="black" d="M222.867,-78.9608C260.614,-63.7839 313.348,-42.5818 344.941,-29.8792"/>
<polygon fill="black" stroke="black" points="221.104,-75.897 213.132,-82.8748 223.716,-82.3917 221.104,-75.897"/>
</g>
<!-- Commit -->
<g id="node7" class="node"><title>Commit</title>
<polygon fill="none" stroke="black" points="158.5,-36 97.5,-36 97.5,-0 158.5,-0 158.5,-36"/>
<text text-anchor="middle" x="128" y="-14.3" font-family="Times,serif" font-size="14.00">Commit</text>
</g>
<!-- O&#45;&gt;Commit -->
<g id="edge8" class="edge"><title>O&#45;&gt;Commit</title>
<path fill="none" stroke="black" d="M158.244,-66.1813C151.716,-55.9963 144.687,-45.0317 139.05,-36.2382"/>
<polygon fill="black" stroke="black" points="155.462,-68.327 163.806,-74.857 161.356,-64.5493 155.462,-68.327"/>
</g>
<!-- Tree&#45;&gt;Tree -->
<g id="edge12" class="edge"><title>Tree&#45;&gt;Tree</title>
<path fill="none" stroke="black" d="M256.241,-24.7434C266.024,-24.8884 274,-22.6406 274,-18 274,-15.1721 271.038,-13.2328 266.51,-12.182"/>
<polygon fill="black" stroke="black" points="256.241,-11.2566 266.604,-7.6723 261.221,-11.7054 266.2,-12.1541 266.2,-12.1541 266.2,-12.1541 261.221,-11.7054 265.797,-16.636 256.241,-11.2566 256.241,-11.2566"/>
<text text-anchor="middle" x="288" y="-21.8" font-family="Times,serif" font-size="14.00"> 0..*</text>
<text text-anchor="middle" x="288" y="-6.8" font-family="Times,serif" font-size="14.00">0..*1</text>
</g>
<!-- Tree&#45;&gt;Blob -->
<g id="edge14" class="edge"><title>Tree&#45;&gt;Blob</title>
<path fill="none" stroke="black" d="M256.234,-18C278.498,-18 310.204,-18 334.807,-18"/>
<polygon fill="black" stroke="black" points="344.868,-18 334.868,-22.5001 339.868,-18 334.868,-18.0001 334.868,-18.0001 334.868,-18.0001 339.868,-18 334.868,-13.5001 344.868,-18 344.868,-18"/>
<text text-anchor="middle" x="300.5" y="-39.8" font-family="Times,serif" font-size="14.00"> 0..*</text>
<text text-anchor="middle" x="300.5" y="-24.8" font-family="Times,serif" font-size="14.00">1</text>
</g>
<!-- Tag&#45;&gt;Commit -->
<g id="edge18" class="edge"><title>Tag&#45;&gt;Commit</title>
<path fill="none" stroke="black" d="M54.0661,-18C64.2663,-18 76.1053,-18 87.28,-18"/>
<polygon fill="black" stroke="black" points="97.2896,-18 87.2896,-22.5001 92.2896,-18 87.2896,-18.0001 87.2896,-18.0001 87.2896,-18.0001 92.2896,-18 87.2895,-13.5001 97.2896,-18 97.2896,-18"/>
<text text-anchor="middle" x="75.5" y="-39.8" font-family="Times,serif" font-size="14.00"> 0..*</text>
<text text-anchor="middle" x="75.5" y="-24.8" font-family="Times,serif" font-size="14.00">1</text>
</g>
<!-- Commit&#45;&gt;Tree -->
<g id="edge16" class="edge"><title>Commit&#45;&gt;Tree</title>
<path fill="none" stroke="black" d="M158.577,-18C169.049,-18 180.882,-18 191.818,-18"/>
<polygon fill="black" stroke="black" points="201.954,-18 191.954,-22.5001 196.954,-18 191.954,-18.0001 191.954,-18.0001 191.954,-18.0001 196.954,-18 191.954,-13.5001 201.954,-18 201.954,-18"/>
<text text-anchor="middle" x="180" y="-39.8" font-family="Times,serif" font-size="14.00"> 1..*</text>
<text text-anchor="middle" x="180" y="-24.8" font-family="Times,serif" font-size="14.00">1</text>
</g>
</g>
</svg>
