<?xml version="1.0" encoding="UTF-8" standalone="no"?>
<!DOCTYPE svg PUBLIC "-//W3C//DTD SVG 1.1//EN"
 "http://www.w3.org/Graphics/SVG/1.1/DTD/svg11.dtd">
<!-- Generated by graphviz version 2.28.0 (20120228.1926)
 -->
<!-- Title: Parents Pages: 1 -->
<svg width="548pt" height="152pt"
 viewBox="0.00 0.00 548.00 152.00" xmlns="http://www.w3.org/2000/svg" xmlns:xlink="http://www.w3.org/1999/xlink">
<g id="graph1" class="graph" transform="scale(1 1) rotate(0) translate(4 148)">
<title>Parents</title>
<polygon fill="white" stroke="white" points="-4,5 -4,-148 545,-148 545,5 -4,5"/>
<!-- 5c071a6b2c -->
<g id="node2" class="node"><title>5c071a6b2c</title>
<ellipse fill="none" stroke="black" cx="55" cy="-72" rx="53.0913" ry="18"/>
<text text-anchor="middle" x="55" y="-68.3" font-family="Times,serif" font-size="14.00">5c071a6b2c</text>
</g>
<!-- 968bda3251 -->
<g id="node4" class="node"><title>968bda3251</title>
<ellipse fill="none" stroke="black" cx="200" cy="-72" rx="53.8905" ry="18"/>
<text text-anchor="middle" x="200" y="-68.3" font-family="Times,serif" font-size="14.00">968bda3251</text>
</g>
<!-- 5c071a6b2c&#45;&gt;968bda3251 -->
<g id="edge3" class="edge"><title>5c071a6b2c&#45;&gt;968bda3251</title>
<path fill="none" stroke="black" d="M108.436,-72C117.239,-72 126.458,-72 135.504,-72"/>
<polygon fill="black" stroke="black" points="135.612,-75.5001 145.612,-72 135.612,-68.5001 135.612,-75.5001"/>
</g>
<!-- 2a3242efa4 -->
<g id="node5" class="node"><title>2a3242efa4</title>
<ellipse fill="none" stroke="black" cx="342" cy="-72" rx="51.9908" ry="18"/>
<text text-anchor="middle" x="342" y="-68.3" font-family="Times,serif" font-size="14.00">2a3242efa4</text>
</g>
<!-- 968bda3251&#45;&gt;2a3242efa4 -->
<g id="edge4" class="edge"><title>968bda3251&#45;&gt;2a3242efa4</title>
<path fill="none" stroke="black" d="M254.327,-72C262.568,-72 271.136,-72 279.537,-72"/>
<polygon fill="black" stroke="black" points="279.669,-75.5001 289.669,-72 279.669,-68.5001 279.669,-75.5001"/>
</g>
<!-- 5563d7b837 -->
<g id="node6" class="node"><title>5563d7b837</title>
<ellipse fill="none" stroke="black" cx="485" cy="-72" rx="54.6905" ry="18"/>
<text text-anchor="middle" x="485" y="-68.3" font-family="Times,serif" font-size="14.00">5563d7b837</text>
</g>
<!-- 2a3242efa4&#45;&gt;5563d7b837 -->
<g id="edge5" class="edge"><title>2a3242efa4&#45;&gt;5563d7b837</title>
<path fill="none" stroke="black" d="M394.303,-72C402.679,-72 411.447,-72 420.081,-72"/>
<polygon fill="black" stroke="black" points="420.125,-75.5001 430.125,-72 420.125,-68.5001 420.125,-75.5001"/>
</g>
<!-- 9e59700d33 -->
<g id="node8" class="node"><title>9e59700d33</title>
<ellipse fill="green" stroke="green" cx="200" cy="-18" rx="53.8905" ry="18"/>
<text text-anchor="middle" x="200" y="-14.3" font-family="Times,serif" font-size="14.00">9e59700d33</text>
</g>
<!-- 9e59700d33&#45;&gt;2a3242efa4 -->
<g id="edge8" class="edge"><title>9e59700d33&#45;&gt;2a3242efa4</title>
<path fill="none" stroke="black" d="M235.967,-31.4872C254.481,-38.6282 277.4,-47.4685 297.1,-55.0671"/>
<polygon fill="black" stroke="black" points="295.889,-58.3514 306.479,-58.6847 298.408,-51.8204 295.889,-58.3514"/>
</g>
<!-- 9754d40473 -->
<g id="node10" class="node"><title>9754d40473</title>
<ellipse fill="none" stroke="black" cx="55" cy="-18" rx="54.6905" ry="18"/>
<text text-anchor="middle" x="55" y="-14.3" font-family="Times,serif" font-size="14.00">9754d40473</text>
</g>
<!-- 9754d40473&#45;&gt;9e59700d33 -->
<g id="edge10" class="edge"><title>9754d40473&#45;&gt;9e59700d33</title>
<path fill="none" stroke="black" d="M109.655,-18C118.199,-18 127.107,-18 135.846,-18"/>
<polygon fill="black" stroke="black" points="135.995,-21.5001 145.995,-18 135.995,-14.5001 135.995,-21.5001"/>
</g>
<!-- HEAD -->
<g id="node13" class="node"><title>HEAD</title>
<polygon fill="none" stroke="black" points="512,-144 458,-144 458,-108 512,-108 512,-144"/>
<text text-anchor="middle" x="485" y="-122.3" font-family="Times,serif" font-size="14.00">HEAD</text>
</g>
<!-- HEAD&#45;&gt;5563d7b837 -->
<g id="edge13" class="edge"><title>HEAD&#45;&gt;5563d7b837</title>
<path fill="none" stroke="black" d="M485,-107.79C485,-105.308 485,-102.826 485,-100.344"/>
<polygon fill="black" stroke="black" points="488.5,-100.141 485,-90.1406 481.5,-100.141 488.5,-100.141"/>
</g>
</g>
</svg>
