<?xml version="1.0" encoding="UTF-8" standalone="no"?>
<!DOCTYPE svg PUBLIC "-//W3C//DTD SVG 1.1//EN"
 "http://www.w3.org/Graphics/SVG/1.1/DTD/svg11.dtd">
<!-- Generated by graphviz version 2.28.0 (20120228.1926)
 -->
<!-- Title: Remote Pages: 1 -->
<svg width="724pt" height="206pt"
 viewBox="0.00 0.00 724.00 206.00" xmlns="http://www.w3.org/2000/svg" xmlns:xlink="http://www.w3.org/1999/xlink">
<g id="graph1" class="graph" transform="scale(1 1) rotate(0) translate(4 202)">
<title>Remote</title>
<polygon fill="white" stroke="white" points="-4,5 -4,-202 721,-202 721,5 -4,5"/>
<!-- 5c071a6b2c -->
<g id="node2" class="node"><title>5c071a6b2c</title>
<ellipse fill="none" stroke="black" cx="54" cy="-126" rx="53.0913" ry="18"/>
<text text-anchor="middle" x="54" y="-122.3" font-family="Times,serif" font-size="14.00">5c071a6b2c</text>
</g>
<!-- 968bda3251 -->
<g id="node4" class="node"><title>968bda3251</title>
<ellipse fill="none" stroke="black" cx="198" cy="-126" rx="53.8905" ry="18"/>
<text text-anchor="middle" x="198" y="-122.3" font-family="Times,serif" font-size="14.00">968bda3251</text>
</g>
<!-- 5c071a6b2c&#45;&gt;968bda3251 -->
<g id="edge3" class="edge"><title>5c071a6b2c&#45;&gt;968bda3251</title>
<path fill="none" stroke="black" d="M107.472,-126C115.99,-126 124.89,-126 133.634,-126"/>
<polygon fill="black" stroke="black" points="133.795,-129.5 143.795,-126 133.795,-122.5 133.795,-129.5"/>
</g>
<!-- 103dba9760 -->
<g id="node5" class="node"><title>103dba9760</title>
<ellipse fill="none" stroke="black" cx="343" cy="-126" rx="53.8905" ry="18"/>
<text text-anchor="middle" x="343" y="-122.3" font-family="Times,serif" font-size="14.00">103dba9760</text>
</g>
<!-- 968bda3251&#45;&gt;103dba9760 -->
<g id="edge4" class="edge"><title>968bda3251&#45;&gt;103dba9760</title>
<path fill="none" stroke="black" d="M252.248,-126C260.809,-126 269.744,-126 278.517,-126"/>
<polygon fill="black" stroke="black" points="278.708,-129.5 288.708,-126 278.708,-122.5 278.708,-129.5"/>
</g>
<!-- 9754d40473 -->
<g id="node10" class="node"><title>9754d40473</title>
<ellipse fill="none" stroke="black" cx="343" cy="-18" rx="54.6905" ry="18"/>
<text text-anchor="middle" x="343" y="-14.3" font-family="Times,serif" font-size="14.00">9754d40473</text>
</g>
<!-- 968bda3251&#45;&gt;9754d40473 -->
<g id="edge9" class="edge"><title>968bda3251&#45;&gt;9754d40473</title>
<path fill="none" stroke="black" d="M220.719,-109.597C245.076,-91.201 284.736,-61.2482 312.033,-40.6324"/>
<polygon fill="black" stroke="black" points="314.206,-43.377 320.077,-34.5572 309.988,-37.7911 314.206,-43.377"/>
</g>
<!-- e974e8334e -->
<g id="node6" class="node"><title>e974e8334e</title>
<ellipse fill="none" stroke="black" cx="488" cy="-126" rx="53.0913" ry="18"/>
<text text-anchor="middle" x="488" y="-122.3" font-family="Times,serif" font-size="14.00">e974e8334e</text>
</g>
<!-- 103dba9760&#45;&gt;e974e8334e -->
<g id="edge5" class="edge"><title>103dba9760&#45;&gt;e974e8334e</title>
<path fill="none" stroke="black" d="M397.248,-126C406.133,-126 415.421,-126 424.511,-126"/>
<polygon fill="black" stroke="black" points="424.659,-129.5 434.659,-126 424.659,-122.5 424.659,-129.5"/>
</g>
<!-- cf41c59ef2 -->
<g id="node7" class="node"><title>cf41c59ef2</title>
<ellipse fill="none" stroke="black" cx="647" cy="-126" rx="50.0912" ry="18"/>
<text text-anchor="middle" x="647" y="-122.3" font-family="Times,serif" font-size="14.00">cf41c59ef2</text>
</g>
<!-- e974e8334e&#45;&gt;cf41c59ef2 -->
<g id="edge6" class="edge"><title>e974e8334e&#45;&gt;cf41c59ef2</title>
<path fill="none" stroke="black" d="M541.715,-126C556.191,-126 571.983,-126 586.798,-126"/>
<polygon fill="black" stroke="black" points="586.869,-129.5 596.869,-126 586.869,-122.5 586.869,-129.5"/>
</g>
<!-- 9e59700d33 -->
<g id="node12" class="node"><title>9e59700d33</title>
<ellipse fill="none" stroke="black" cx="488" cy="-18" rx="53.8905" ry="18"/>
<text text-anchor="middle" x="488" y="-14.3" font-family="Times,serif" font-size="14.00">9e59700d33</text>
</g>
<!-- 9754d40473&#45;&gt;9e59700d33 -->
<g id="edge11" class="edge"><title>9754d40473&#45;&gt;9e59700d33</title>
<path fill="none" stroke="black" d="M397.655,-18C406.199,-18 415.107,-18 423.846,-18"/>
<polygon fill="black" stroke="black" points="423.995,-21.5001 433.995,-18 423.995,-14.5001 423.995,-21.5001"/>
</g>
<!-- 35ee8ce6b6 -->
<g id="node13" class="node"><title>35ee8ce6b6</title>
<ellipse fill="none" stroke="black" cx="647" cy="-18" rx="52.7911" ry="18"/>
<text text-anchor="middle" x="647" y="-14.3" font-family="Times,serif" font-size="14.00">35ee8ce6b6</text>
</g>
<!-- 9e59700d33&#45;&gt;35ee8ce6b6 -->
<g id="edge12" class="edge"><title>9e59700d33&#45;&gt;35ee8ce6b6</title>
<path fill="none" stroke="black" d="M542.153,-18C555.551,-18 570.053,-18 583.849,-18"/>
<polygon fill="black" stroke="black" points="584.232,-21.5001 594.232,-18 584.232,-14.5001 584.232,-21.5001"/>
</g>
<!-- remote/master/HEAD -->
<g id="node15" class="node"><title>remote/master/HEAD</title>
<polygon fill="none" stroke="black" points="715.5,-90 578.5,-90 578.5,-54 715.5,-54 715.5,-90"/>
<text text-anchor="middle" x="647" y="-68.3" font-family="Times,serif" font-size="14.00">remote/master/HEAD</text>
</g>
<!-- remote/master/HEAD&#45;&gt;35ee8ce6b6 -->
<g id="edge15" class="edge"><title>remote/master/HEAD&#45;&gt;35ee8ce6b6</title>
<path fill="none" stroke="black" d="M647,-53.7902C647,-51.3082 647,-48.8262 647,-46.3443"/>
<polygon fill="black" stroke="black" points="650.5,-46.1406 647,-36.1406 643.5,-46.1407 650.5,-46.1406"/>
</g>
<!-- master/HEAD -->
<g id="node17" class="node"><title>master/HEAD</title>
<polygon fill="none" stroke="black" points="694.5,-198 599.5,-198 599.5,-162 694.5,-162 694.5,-198"/>
<text text-anchor="middle" x="647" y="-176.3" font-family="Times,serif" font-size="14.00">master/HEAD</text>
</g>
<!-- master/HEAD&#45;&gt;cf41c59ef2 -->
<g id="edge17" class="edge"><title>master/HEAD&#45;&gt;cf41c59ef2</title>
<path fill="none" stroke="black" d="M647,-161.79C647,-159.308 647,-156.826 647,-154.344"/>
<polygon fill="black" stroke="black" points="650.5,-154.141 647,-144.141 643.5,-154.141 650.5,-154.141"/>
</g>
</g>
</svg>
