<?xml version="1.0" encoding="UTF-8" standalone="no"?>
<!DOCTYPE svg PUBLIC "-//W3C//DTD SVG 1.1//EN"
 "http://www.w3.org/Graphics/SVG/1.1/DTD/svg11.dtd">
<!-- Generated by graphviz version 2.28.0 (20120228.1926)
 -->
<!-- Title: G Pages: 1 -->
<svg width="724pt" height="206pt"
 viewBox="0.00 0.00 724.00 206.00" xmlns="http://www.w3.org/2000/svg" xmlns:xlink="http://www.w3.org/1999/xlink">
<g id="graph1" class="graph" transform="scale(1 1) rotate(0) translate(4 202)">
<title>G</title>
<polygon fill="white" stroke="white" points="-4,5 -4,-202 721,-202 721,5 -4,5"/>
<!-- 5c071a6b2c -->
<g id="node1" class="node"><title>5c071a6b2c</title>
<ellipse fill="none" stroke="black" cx="54" cy="-78" rx="53.0913" ry="18"/>
<text text-anchor="middle" x="54" y="-74.3" font-family="Times,serif" font-size="14.00">5c071a6b2c</text>
</g>
<!-- 968bda3251 -->
<g id="node3" class="node"><title>968bda3251</title>
<ellipse fill="none" stroke="black" cx="198" cy="-78" rx="53.8905" ry="18"/>
<text text-anchor="middle" x="198" y="-74.3" font-family="Times,serif" font-size="14.00">968bda3251</text>
</g>
<!-- 5c071a6b2c&#45;&gt;968bda3251 -->
<g id="edge2" class="edge"><title>5c071a6b2c&#45;&gt;968bda3251</title>
<path fill="none" stroke="black" d="M107.472,-78C115.99,-78 124.89,-78 133.634,-78"/>
<polygon fill="black" stroke="black" points="133.795,-81.5001 143.795,-78 133.795,-74.5001 133.795,-81.5001"/>
</g>
<!-- 103dba9760 -->
<g id="node4" class="node"><title>103dba9760</title>
<ellipse fill="none" stroke="black" cx="343" cy="-109" rx="53.8905" ry="18"/>
<text text-anchor="middle" x="343" y="-105.3" font-family="Times,serif" font-size="14.00">103dba9760</text>
</g>
<!-- 968bda3251&#45;&gt;103dba9760 -->
<g id="edge3" class="edge"><title>968bda3251&#45;&gt;103dba9760</title>
<path fill="none" stroke="black" d="M243.854,-87.7235C257.696,-90.7244 273.094,-94.0623 287.512,-97.1878"/>
<polygon fill="black" stroke="black" points="286.791,-100.613 297.305,-99.311 288.274,-93.7717 286.791,-100.613"/>
</g>
<!-- 9754d40473 -->
<g id="node8" class="node"><title>9754d40473</title>
<ellipse fill="none" stroke="black" cx="343" cy="-48" rx="54.6905" ry="18"/>
<text text-anchor="middle" x="343" y="-44.3" font-family="Times,serif" font-size="14.00">9754d40473</text>
</g>
<!-- 968bda3251&#45;&gt;9754d40473 -->
<g id="edge7" class="edge"><title>968bda3251&#45;&gt;9754d40473</title>
<path fill="none" stroke="black" d="M244.246,-68.5078C257.678,-65.6899 272.546,-62.5708 286.548,-59.6333"/>
<polygon fill="black" stroke="black" points="287.489,-63.0121 296.557,-57.5334 286.052,-56.1613 287.489,-63.0121"/>
</g>
<!-- e974e8334e -->
<g id="node5" class="node"><title>e974e8334e</title>
<ellipse fill="none" stroke="black" cx="488" cy="-122" rx="53.0913" ry="18"/>
<text text-anchor="middle" x="488" y="-118.3" font-family="Times,serif" font-size="14.00">e974e8334e</text>
</g>
<!-- 103dba9760&#45;&gt;e974e8334e -->
<g id="edge4" class="edge"><title>103dba9760&#45;&gt;e974e8334e</title>
<path fill="none" stroke="black" d="M395.222,-113.657C405.2,-114.564 415.752,-115.523 426.009,-116.455"/>
<polygon fill="black" stroke="black" points="425.859,-119.956 436.135,-117.376 426.493,-112.985 425.859,-119.956"/>
</g>
<!-- cf41c59ef2 -->
<g id="node6" class="node"><title>cf41c59ef2</title>
<ellipse fill="none" stroke="black" cx="647" cy="-126" rx="50.0912" ry="18"/>
<text text-anchor="middle" x="647" y="-122.3" font-family="Times,serif" font-size="14.00">cf41c59ef2</text>
</g>
<!-- e974e8334e&#45;&gt;cf41c59ef2 -->
<g id="edge5" class="edge"><title>e974e8334e&#45;&gt;cf41c59ef2</title>
<path fill="none" stroke="black" d="M541.279,-123.332C555.847,-123.703 571.775,-124.109 586.715,-124.49"/>
<polygon fill="black" stroke="black" points="586.785,-127.992 596.871,-124.748 586.963,-120.995 586.785,-127.992"/>
</g>
<!-- 9e59700d33 -->
<g id="node9" class="node"><title>9e59700d33</title>
<ellipse fill="none" stroke="black" cx="488" cy="-45" rx="53.8905" ry="18"/>
<text text-anchor="middle" x="488" y="-41.3" font-family="Times,serif" font-size="14.00">9e59700d33</text>
</g>
<!-- 9754d40473&#45;&gt;9e59700d33 -->
<g id="edge8" class="edge"><title>9754d40473&#45;&gt;9e59700d33</title>
<path fill="none" stroke="black" d="M397.655,-46.8744C406.199,-46.6951 415.107,-46.5083 423.846,-46.3249"/>
<polygon fill="black" stroke="black" points="424.071,-49.8211 433.995,-46.112 423.924,-42.8226 424.071,-49.8211"/>
</g>
<!-- 35ee8ce6b6 -->
<g id="node10" class="node"><title>35ee8ce6b6</title>
<ellipse fill="none" stroke="black" cx="647" cy="-18" rx="52.7911" ry="18"/>
<text text-anchor="middle" x="647" y="-14.3" font-family="Times,serif" font-size="14.00">35ee8ce6b6</text>
</g>
<!-- 9e59700d33&#45;&gt;35ee8ce6b6 -->
<g id="edge9" class="edge"><title>9e59700d33&#45;&gt;35ee8ce6b6</title>
<path fill="none" stroke="black" d="M536.531,-36.8258C553.28,-33.9455 572.269,-30.6799 589.674,-27.6867"/>
<polygon fill="black" stroke="black" points="590.447,-31.1051 599.709,-25.9608 589.261,-24.2064 590.447,-31.1051"/>
</g>
<!-- remote/master/HEAD -->
<g id="node12" class="node"><title>remote/master/HEAD</title>
<polygon fill="none" stroke="black" points="715.5,-90 578.5,-90 578.5,-54 715.5,-54 715.5,-90"/>
<text text-anchor="middle" x="647" y="-68.3" font-family="Times,serif" font-size="14.00">remote/master/HEAD</text>
</g>
<!-- remote/master/HEAD&#45;&gt;35ee8ce6b6 -->
<g id="edge12" class="edge"><title>remote/master/HEAD&#45;&gt;35ee8ce6b6</title>
<path fill="none" stroke="black" d="M647,-53.7902C647,-51.3082 647,-48.8262 647,-46.3443"/>
<polygon fill="black" stroke="black" points="650.5,-46.1406 647,-36.1406 643.5,-46.1407 650.5,-46.1406"/>
</g>
<!-- master/HEAD -->
<g id="node14" class="node"><title>master/HEAD</title>
<polygon fill="none" stroke="black" points="694.5,-198 599.5,-198 599.5,-162 694.5,-162 694.5,-198"/>
<text text-anchor="middle" x="647" y="-176.3" font-family="Times,serif" font-size="14.00">master/HEAD</text>
</g>
<!-- master/HEAD&#45;&gt;cf41c59ef2 -->
<g id="edge14" class="edge"><title>master/HEAD&#45;&gt;cf41c59ef2</title>
<path fill="none" stroke="black" d="M647,-161.79C647,-159.308 647,-156.826 647,-154.344"/>
<polygon fill="black" stroke="black" points="650.5,-154.141 647,-144.141 643.5,-154.141 650.5,-154.141"/>
</g>
</g>
</svg>
