<?xml version="1.0" encoding="UTF-8" standalone="no"?>
<!DOCTYPE svg PUBLIC "-//W3C//DTD SVG 1.1//EN"
 "http://www.w3.org/Graphics/SVG/1.1/DTD/svg11.dtd">
<!-- Generated by graphviz version 2.28.0 (20120228.1926)
 -->
<!-- Title: Tags Pages: 1 -->
<svg width="690pt" height="152pt"
 viewBox="0.00 0.00 690.00 152.00" xmlns="http://www.w3.org/2000/svg" xmlns:xlink="http://www.w3.org/1999/xlink">
<g id="graph1" class="graph" transform="scale(1 1) rotate(0) translate(4 148)">
<title>Tags</title>
<polygon fill="white" stroke="white" points="-4,5 -4,-148 687,-148 687,5 -4,5"/>
<!-- 5c071a6b2c -->
<g id="node2" class="node"><title>5c071a6b2c</title>
<ellipse fill="none" stroke="black" cx="54" cy="-72" rx="53.0913" ry="18"/>
<text text-anchor="middle" x="54" y="-68.3" font-family="Times,serif" font-size="14.00">5c071a6b2c</text>
</g>
<!-- 968bda3251 -->
<g id="node4" class="node"><title>968bda3251</title>
<ellipse fill="none" stroke="black" cx="198" cy="-72" rx="53.8905" ry="18"/>
<text text-anchor="middle" x="198" y="-68.3" font-family="Times,serif" font-size="14.00">968bda3251</text>
</g>
<!-- 5c071a6b2c&#45;&gt;968bda3251 -->
<g id="edge3" class="edge"><title>5c071a6b2c&#45;&gt;968bda3251</title>
<path fill="none" stroke="black" d="M107.472,-72C115.99,-72 124.89,-72 133.634,-72"/>
<polygon fill="black" stroke="black" points="133.795,-75.5001 143.795,-72 133.795,-68.5001 133.795,-75.5001"/>
</g>
<!-- 9754d40473 -->
<g id="node5" class="node"><title>9754d40473</title>
<ellipse fill="none" stroke="black" cx="343" cy="-72" rx="54.6905" ry="18"/>
<text text-anchor="middle" x="343" y="-68.3" font-family="Times,serif" font-size="14.00">9754d40473</text>
</g>
<!-- 968bda3251&#45;&gt;9754d40473 -->
<g id="edge4" class="edge"><title>968bda3251&#45;&gt;9754d40473</title>
<path fill="none" stroke="black" d="M252.248,-72C260.695,-72 269.506,-72 278.166,-72"/>
<polygon fill="black" stroke="black" points="278.231,-75.5001 288.231,-72 278.231,-68.5001 278.231,-75.5001"/>
</g>
<!-- 9e59700d33 -->
<g id="node6" class="node"><title>9e59700d33</title>
<ellipse fill="none" stroke="black" cx="488" cy="-72" rx="53.8905" ry="18"/>
<text text-anchor="middle" x="488" y="-68.3" font-family="Times,serif" font-size="14.00">9e59700d33</text>
</g>
<!-- 9754d40473&#45;&gt;9e59700d33 -->
<g id="edge5" class="edge"><title>9754d40473&#45;&gt;9e59700d33</title>
<path fill="none" stroke="black" d="M397.655,-72C406.199,-72 415.107,-72 423.846,-72"/>
<polygon fill="black" stroke="black" points="423.995,-75.5001 433.995,-72 423.995,-68.5001 423.995,-75.5001"/>
</g>
<!-- 2a3242efa4 -->
<g id="node7" class="node"><title>2a3242efa4</title>
<ellipse fill="none" stroke="black" cx="630" cy="-72" rx="51.9908" ry="18"/>
<text text-anchor="middle" x="630" y="-68.3" font-family="Times,serif" font-size="14.00">2a3242efa4</text>
</g>
<!-- 9e59700d33&#45;&gt;2a3242efa4 -->
<g id="edge6" class="edge"><title>9e59700d33&#45;&gt;2a3242efa4</title>
<path fill="none" stroke="black" d="M542.327,-72C550.568,-72 559.136,-72 567.537,-72"/>
<polygon fill="black" stroke="black" points="567.669,-75.5001 577.669,-72 567.669,-68.5001 567.669,-75.5001"/>
</g>
<!-- V1.0 -->
<g id="node9" class="node"><title>V1.0</title>
<polygon fill="none" stroke="black" points="225,-144 171,-144 171,-108 225,-108 225,-144"/>
<text text-anchor="middle" x="198" y="-122.3" font-family="Times,serif" font-size="14.00">V1.0</text>
</g>
<!-- V1.0&#45;&gt;9e59700d33 -->
<g id="edge9" class="edge"><title>V1.0&#45;&gt;9e59700d33</title>
<path fill="none" stroke="black" d="M225.31,-123.78C263.619,-120.243 336.854,-112.334 398,-99 411.837,-95.9826 426.64,-91.8634 440.123,-87.7515"/>
<polygon fill="black" stroke="black" points="441.169,-91.0917 449.674,-84.7746 439.086,-84.4087 441.169,-91.0917"/>
</g>
<!-- br/HEAD -->
<g id="node10" class="node"><title>br/HEAD</title>
<polygon fill="none" stroke="black" points="88.5,-36 19.5,-36 19.5,-0 88.5,-0 88.5,-36"/>
<text text-anchor="middle" x="54" y="-14.3" font-family="Times,serif" font-size="14.00">br/HEAD</text>
</g>
<!-- br/HEAD&#45;&gt;2a3242efa4 -->
<g id="edge11" class="edge"><title>br/HEAD&#45;&gt;2a3242efa4</title>
<path fill="none" stroke="black" d="M88.6893,-17.0449C168.274,-15.3996 373.865,-14.7254 542,-45 556.028,-47.5258 570.961,-51.6196 584.424,-55.8642"/>
<polygon fill="black" stroke="black" points="583.341,-59.1924 593.933,-58.9614 585.509,-52.5365 583.341,-59.1924"/>
</g>
</g>
</svg>
