<?xml version="1.0" encoding="UTF-8" standalone="no"?>
<!DOCTYPE svg PUBLIC "-//W3C//DTD SVG 1.1//EN"
 "http://www.w3.org/Graphics/SVG/1.1/DTD/svg11.dtd">
<!-- Generated by graphviz version 2.28.0 (20120228.1926)
 -->
<!-- Title: G Pages: 1 -->
<svg width="550pt" height="206pt"
 viewBox="0.00 0.00 550.00 206.00" xmlns="http://www.w3.org/2000/svg" xmlns:xlink="http://www.w3.org/1999/xlink">
<g id="graph1" class="graph" transform="scale(1 1) rotate(0) translate(4 202)">
<title>G</title>
<polygon fill="white" stroke="white" points="-4,5 -4,-202 547,-202 547,5 -4,5"/>
<!-- 5c071a6b2c -->
<g id="node1" class="node"><title>5c071a6b2c</title>
<ellipse fill="none" stroke="black" cx="54" cy="-72" rx="53.0913" ry="18"/>
<text text-anchor="middle" x="54" y="-68.3" font-family="Times,serif" font-size="14.00">5c071a6b2c</text>
</g>
<!-- 968bda3251 -->
<g id="node3" class="node"><title>968bda3251</title>
<ellipse fill="none" stroke="black" cx="198" cy="-72" rx="53.8905" ry="18"/>
<text text-anchor="middle" x="198" y="-68.3" font-family="Times,serif" font-size="14.00">968bda3251</text>
</g>
<!-- 5c071a6b2c&#45;&gt;968bda3251 -->
<g id="edge2" class="edge"><title>5c071a6b2c&#45;&gt;968bda3251</title>
<path fill="none" stroke="black" d="M107.472,-72C115.99,-72 124.89,-72 133.634,-72"/>
<polygon fill="black" stroke="black" points="133.795,-75.5001 143.795,-72 133.795,-68.5001 133.795,-75.5001"/>
</g>
<!-- 9754d40473 -->
<g id="node4" class="node"><title>9754d40473</title>
<ellipse fill="none" stroke="black" cx="343" cy="-72" rx="54.6905" ry="18"/>
<text text-anchor="middle" x="343" y="-68.3" font-family="Times,serif" font-size="14.00">9754d40473</text>
</g>
<!-- 968bda3251&#45;&gt;9754d40473 -->
<g id="edge3" class="edge"><title>968bda3251&#45;&gt;9754d40473</title>
<path fill="none" stroke="black" d="M252.248,-72C260.695,-72 269.506,-72 278.166,-72"/>
<polygon fill="black" stroke="black" points="278.231,-75.5001 288.231,-72 278.231,-68.5001 278.231,-75.5001"/>
</g>
<!-- 9e59700d33 -->
<g id="node5" class="node"><title>9e59700d33</title>
<ellipse fill="none" stroke="black" cx="488" cy="-72" rx="53.8905" ry="18"/>
<text text-anchor="middle" x="488" y="-68.3" font-family="Times,serif" font-size="14.00">9e59700d33</text>
</g>
<!-- 9754d40473&#45;&gt;9e59700d33 -->
<g id="edge4" class="edge"><title>9754d40473&#45;&gt;9e59700d33</title>
<path fill="none" stroke="black" d="M397.655,-72C406.199,-72 415.107,-72 423.846,-72"/>
<polygon fill="black" stroke="black" points="423.995,-75.5001 433.995,-72 423.995,-68.5001 423.995,-75.5001"/>
</g>
<!-- 2a3242efa4 -->
<g id="node6" class="node"><title>2a3242efa4</title>
<ellipse fill="none" stroke="black" cx="488" cy="-18" rx="51.9908" ry="18"/>
<text text-anchor="middle" x="488" y="-14.3" font-family="Times,serif" font-size="14.00">2a3242efa4</text>
</g>
<!-- 9e59700d33&#45;&gt;2a3242efa4 -->
<g id="edge5" class="edge"><title>9e59700d33&#45;&gt;2a3242efa4</title>
<path fill="none" stroke="black" d="M488,-53.7902C488,-51.3082 488,-48.8262 488,-46.3443"/>
<polygon fill="black" stroke="black" points="491.5,-46.1406 488,-36.1406 484.5,-46.1407 491.5,-46.1406"/>
</g>
<!-- V1.0 -->
<g id="node8" class="node"><title>V1.0</title>
<polygon fill="none" stroke="black" points="515,-144 461,-144 461,-108 515,-108 515,-144"/>
<text text-anchor="middle" x="488" y="-122.3" font-family="Times,serif" font-size="14.00">V1.0</text>
</g>
<!-- V1.0&#45;&gt;9e59700d33 -->
<g id="edge8" class="edge"><title>V1.0&#45;&gt;9e59700d33</title>
<path fill="none" stroke="black" d="M488,-107.79C488,-105.308 488,-102.826 488,-100.344"/>
<polygon fill="black" stroke="black" points="491.5,-100.141 488,-90.1406 484.5,-100.141 491.5,-100.141"/>
</g>
<!-- br/HEAD -->
<g id="node10" class="node"><title>br/HEAD</title>
<polygon fill="none" stroke="black" points="522.5,-198 453.5,-198 453.5,-162 522.5,-162 522.5,-198"/>
<text text-anchor="middle" x="488" y="-176.3" font-family="Times,serif" font-size="14.00">br/HEAD</text>
</g>
<!-- br/HEAD&#45;&gt;2a3242efa4 -->
<g id="edge10" class="edge"><title>br/HEAD&#45;&gt;2a3242efa4</title>
<path fill="none" stroke="black" d="M453.473,-171.425C439.304,-166.022 424.302,-157.434 416,-144 394.971,-109.974 394.971,-88.026 416,-54 421.29,-45.4405 429.3,-38.8481 438.081,-33.7933"/>
<polygon fill="black" stroke="black" points="439.719,-36.8869 447.047,-29.2351 436.547,-30.647 439.719,-36.8869"/>
</g>
</g>
</svg>
