<?xml version="1.0" encoding="UTF-8" standalone="no"?>
<!DOCTYPE svg PUBLIC "-//W3C//DTD SVG 1.1//EN"
 "http://www.w3.org/Graphics/SVG/1.1/DTD/svg11.dtd">
<!-- Generated by graphviz version 2.28.0 (20120228.1926)
 -->
<!-- Title: Têtes Pages: 1 -->
<svg width="406pt" height="260pt"
 viewBox="0.00 0.00 406.00 260.00" xmlns="http://www.w3.org/2000/svg" xmlns:xlink="http://www.w3.org/1999/xlink">
<g id="graph1" class="graph" transform="scale(1 1) rotate(0) translate(4 256)">
<title>Têtes</title>
<polygon fill="white" stroke="white" points="-4,5 -4,-256 403,-256 403,5 -4,5"/>
<!-- 9754d40473 -->
<g id="node1" class="node"><title>9754d40473</title>
<ellipse fill="none" stroke="black" cx="55" cy="-18" rx="54.6905" ry="18"/>
<text text-anchor="middle" x="55" y="-14.3" font-family="Times,serif" font-size="14.00">9754d40473</text>
</g>
<!-- 9e59700d33 -->
<g id="node3" class="node"><title>9e59700d33</title>
<ellipse fill="none" stroke="black" cx="200" cy="-18" rx="53.8905" ry="18"/>
<text text-anchor="middle" x="200" y="-14.3" font-family="Times,serif" font-size="14.00">9e59700d33</text>
</g>
<!-- 9754d40473&#45;&gt;9e59700d33 -->
<g id="edge2" class="edge"><title>9754d40473&#45;&gt;9e59700d33</title>
<path fill="none" stroke="black" d="M109.655,-18C118.199,-18 127.107,-18 135.846,-18"/>
<polygon fill="black" stroke="black" points="135.995,-21.5001 145.995,-18 135.995,-14.5001 135.995,-21.5001"/>
</g>
<!-- 35ee8ce6b6 -->
<g id="node4" class="node"><title>35ee8ce6b6</title>
<ellipse fill="none" stroke="black" cx="344" cy="-18" rx="52.7911" ry="18"/>
<text text-anchor="middle" x="344" y="-14.3" font-family="Times,serif" font-size="14.00">35ee8ce6b6</text>
</g>
<!-- 9e59700d33&#45;&gt;35ee8ce6b6 -->
<g id="edge3" class="edge"><title>9e59700d33&#45;&gt;35ee8ce6b6</title>
<path fill="none" stroke="black" d="M254.28,-18C263.085,-18 272.279,-18 281.271,-18"/>
<polygon fill="black" stroke="black" points="281.306,-21.5001 291.306,-18 281.306,-14.5001 281.306,-21.5001"/>
</g>
<!-- 5c071a6b2c -->
<g id="node5" class="node"><title>5c071a6b2c</title>
<ellipse fill="none" stroke="black" cx="55" cy="-126" rx="53.0913" ry="18"/>
<text text-anchor="middle" x="55" y="-122.3" font-family="Times,serif" font-size="14.00">5c071a6b2c</text>
</g>
<!-- 968bda3251 -->
<g id="node7" class="node"><title>968bda3251</title>
<ellipse fill="none" stroke="black" cx="200" cy="-126" rx="53.8905" ry="18"/>
<text text-anchor="middle" x="200" y="-122.3" font-family="Times,serif" font-size="14.00">968bda3251</text>
</g>
<!-- 5c071a6b2c&#45;&gt;968bda3251 -->
<g id="edge5" class="edge"><title>5c071a6b2c&#45;&gt;968bda3251</title>
<path fill="none" stroke="black" d="M108.436,-126C117.239,-126 126.458,-126 135.504,-126"/>
<polygon fill="black" stroke="black" points="135.612,-129.5 145.612,-126 135.612,-122.5 135.612,-129.5"/>
</g>
<!-- 103dba9760 -->
<g id="node8" class="node"><title>103dba9760</title>
<ellipse fill="none" stroke="black" cx="344" cy="-126" rx="53.8905" ry="18"/>
<text text-anchor="middle" x="344" y="-122.3" font-family="Times,serif" font-size="14.00">103dba9760</text>
</g>
<!-- 968bda3251&#45;&gt;103dba9760 -->
<g id="edge6" class="edge"><title>968bda3251&#45;&gt;103dba9760</title>
<path fill="none" stroke="black" d="M254.28,-126C262.56,-126 271.184,-126 279.661,-126"/>
<polygon fill="black" stroke="black" points="279.894,-129.5 289.894,-126 279.894,-122.5 279.894,-129.5"/>
</g>
<!-- b1/HEAD -->
<g id="node10" class="node"><title>b1/HEAD</title>
<polygon fill="none" stroke="black" points="379.5,-198 308.5,-198 308.5,-162 379.5,-162 379.5,-198"/>
<text text-anchor="middle" x="344" y="-176.3" font-family="Times,serif" font-size="14.00">b1/HEAD</text>
</g>
<!-- b1/HEAD&#45;&gt;103dba9760 -->
<g id="edge11" class="edge"><title>b1/HEAD&#45;&gt;103dba9760</title>
<path fill="none" stroke="black" d="M344,-161.79C344,-159.308 344,-156.826 344,-154.344"/>
<polygon fill="black" stroke="black" points="347.5,-154.141 344,-144.141 340.5,-154.141 347.5,-154.141"/>
</g>
<!-- HEAD -->
<g id="node11" class="node"><title>HEAD</title>
<polygon fill="none" stroke="black" points="371,-252 317,-252 317,-216 371,-216 371,-252"/>
<text text-anchor="middle" x="344" y="-230.3" font-family="Times,serif" font-size="14.00">HEAD</text>
</g>
<!-- HEAD&#45;&gt;b1/HEAD -->
<g id="edge9" class="edge"><title>HEAD&#45;&gt;b1/HEAD</title>
<path fill="none" stroke="black" d="M344,-215.79C344,-213.308 344,-210.826 344,-208.344"/>
<polygon fill="black" stroke="black" points="347.5,-208.141 344,-198.141 340.5,-208.141 347.5,-208.141"/>
</g>
<!-- b2/HEAD -->
<g id="node15" class="node"><title>b2/HEAD</title>
<polygon fill="none" stroke="black" points="379.5,-90 308.5,-90 308.5,-54 379.5,-54 379.5,-90"/>
<text text-anchor="middle" x="344" y="-68.3" font-family="Times,serif" font-size="14.00">b2/HEAD</text>
</g>
<!-- b2/HEAD&#45;&gt;35ee8ce6b6 -->
<g id="edge14" class="edge"><title>b2/HEAD&#45;&gt;35ee8ce6b6</title>
<path fill="none" stroke="black" d="M344,-53.7902C344,-51.3082 344,-48.8262 344,-46.3443"/>
<polygon fill="black" stroke="black" points="347.5,-46.1406 344,-36.1406 340.5,-46.1407 347.5,-46.1406"/>
</g>
</g>
</svg>
