<?xml version="1.0" encoding="UTF-8" standalone="no"?>
<!DOCTYPE svg PUBLIC "-//W3C//DTD SVG 1.1//EN"
 "http://www.w3.org/Graphics/SVG/1.1/DTD/svg11.dtd">
<!-- Generated by graphviz version 2.28.0 (20120228.1926)
 -->
<!-- Title: Fast&#45;forward Pages: 1 -->
<svg width="724pt" height="152pt"
 viewBox="0.00 0.00 724.00 152.00" xmlns="http://www.w3.org/2000/svg" xmlns:xlink="http://www.w3.org/1999/xlink">
<g id="graph1" class="graph" transform="scale(1 1) rotate(0) translate(4 148)">
<title>Fast&#45;forward</title>
<polygon fill="white" stroke="white" points="-4,5 -4,-148 721,-148 721,5 -4,5"/>
<!-- 5c071a6b2c -->
<g id="node2" class="node"><title>5c071a6b2c</title>
<ellipse fill="none" stroke="black" cx="54" cy="-126" rx="53.0913" ry="18"/>
<text text-anchor="middle" x="54" y="-122.3" font-family="Times,serif" font-size="14.00">5c071a6b2c</text>
</g>
<!-- 968bda3251 -->
<g id="node4" class="node"><title>968bda3251</title>
<ellipse fill="none" stroke="black" cx="198" cy="-126" rx="53.8905" ry="18"/>
<text text-anchor="middle" x="198" y="-122.3" font-family="Times,serif" font-size="14.00">968bda3251</text>
</g>
<!-- 5c071a6b2c&#45;&gt;968bda3251 -->
<g id="edge3" class="edge"><title>5c071a6b2c&#45;&gt;968bda3251</title>
<path fill="none" stroke="black" d="M107.472,-126C115.99,-126 124.89,-126 133.634,-126"/>
<polygon fill="black" stroke="black" points="133.795,-129.5 143.795,-126 133.795,-122.5 133.795,-129.5"/>
</g>
<!-- 9754d40473 -->
<g id="node7" class="node"><title>9754d40473</title>
<ellipse fill="none" stroke="black" cx="343" cy="-126" rx="54.6905" ry="18"/>
<text text-anchor="middle" x="343" y="-122.3" font-family="Times,serif" font-size="14.00">9754d40473</text>
</g>
<!-- 968bda3251&#45;&gt;9754d40473 -->
<g id="edge6" class="edge"><title>968bda3251&#45;&gt;9754d40473</title>
<path fill="none" stroke="black" d="M252.248,-126C260.695,-126 269.506,-126 278.166,-126"/>
<polygon fill="black" stroke="black" points="278.231,-129.5 288.231,-126 278.231,-122.5 278.231,-129.5"/>
</g>
<!-- 9e59700d33 -->
<g id="node9" class="node"><title>9e59700d33</title>
<ellipse fill="none" stroke="black" cx="488" cy="-126" rx="53.8905" ry="18"/>
<text text-anchor="middle" x="488" y="-122.3" font-family="Times,serif" font-size="14.00">9e59700d33</text>
</g>
<!-- 9754d40473&#45;&gt;9e59700d33 -->
<g id="edge8" class="edge"><title>9754d40473&#45;&gt;9e59700d33</title>
<path fill="none" stroke="black" d="M397.655,-126C406.199,-126 415.107,-126 423.846,-126"/>
<polygon fill="black" stroke="black" points="423.995,-129.5 433.995,-126 423.995,-122.5 423.995,-129.5"/>
</g>
<!-- 35ee8ce6b6 -->
<g id="node10" class="node"><title>35ee8ce6b6</title>
<ellipse fill="none" stroke="black" cx="647" cy="-126" rx="52.7911" ry="18"/>
<text text-anchor="middle" x="647" y="-122.3" font-family="Times,serif" font-size="14.00">35ee8ce6b6</text>
</g>
<!-- 9e59700d33&#45;&gt;35ee8ce6b6 -->
<g id="edge9" class="edge"><title>9e59700d33&#45;&gt;35ee8ce6b6</title>
<path fill="none" stroke="black" d="M542.153,-126C555.551,-126 570.053,-126 583.849,-126"/>
<polygon fill="black" stroke="black" points="584.232,-129.5 594.232,-126 584.232,-122.5 584.232,-129.5"/>
</g>
<!-- remote/master/HEAD -->
<g id="node12" class="node"><title>remote/master/HEAD</title>
<polygon fill="none" stroke="black" points="715.5,-90 578.5,-90 578.5,-54 715.5,-54 715.5,-90"/>
<text text-anchor="middle" x="647" y="-68.3" font-family="Times,serif" font-size="14.00">remote/master/HEAD</text>
</g>
<!-- remote/master/HEAD&#45;&gt;35ee8ce6b6 -->
<g id="edge12" class="edge"><title>remote/master/HEAD&#45;&gt;35ee8ce6b6</title>
<path fill="none" stroke="black" d="M647,-90.1406C647,-92.6226 647,-95.1046 647,-97.5865"/>
<polygon fill="black" stroke="black" points="643.5,-97.7901 647,-107.79 650.5,-97.7902 643.5,-97.7901"/>
</g>
<!-- newmh -->
<g id="node14" class="node"><title>newmh</title>
<polygon fill="blue" stroke="blue" points="694.5,-36 599.5,-36 599.5,-0 694.5,-0 694.5,-36"/>
<text text-anchor="middle" x="647" y="-14.3" font-family="Times,serif" font-size="14.00">master/HEAD</text>
</g>
<!-- newmh&#45;&gt;35ee8ce6b6 -->
<g id="edge14" class="edge"><title>newmh&#45;&gt;35ee8ce6b6</title>
<path fill="none" stroke="black" d="M599.486,-26.1656C584.052,-31.3901 568.68,-39.956 560,-54 551.588,-67.6104 551.588,-76.3896 560,-90 566.917,-101.191 578.083,-108.904 590.144,-114.219"/>
<polygon fill="black" stroke="black" points="588.897,-117.489 599.486,-117.834 591.423,-110.961 588.897,-117.489"/>
</g>
<!-- oldmh -->
<g id="node17" class="node"><title>oldmh</title>
<polygon fill="red" stroke="red" points="245.5,-90 150.5,-90 150.5,-54 245.5,-54 245.5,-90"/>
<text text-anchor="middle" x="198" y="-68.3" font-family="Times,serif" font-size="14.00">master/HEAD</text>
</g>
<!-- oldmh&#45;&gt;968bda3251 -->
<g id="edge17" class="edge"><title>oldmh&#45;&gt;968bda3251</title>
<path fill="none" stroke="black" d="M198,-90.1406C198,-92.6226 198,-95.1046 198,-97.5865"/>
<polygon fill="black" stroke="black" points="194.5,-97.7901 198,-107.79 201.5,-97.7902 194.5,-97.7901"/>
</g>
</g>
</svg>
