<?xml version="1.0" encoding="UTF-8" standalone="no"?>
<!DOCTYPE svg PUBLIC "-//W3C//DTD SVG 1.1//EN"
 "http://www.w3.org/Graphics/SVG/1.1/DTD/svg11.dtd">
<!-- Generated by graphviz version 2.28.0 (20120228.1926)
 -->
<!-- Title: Fusion Pages: 1 -->
<svg width="720pt" height="85pt"
 viewBox="0.00 0.00 720.00 84.81" xmlns="http://www.w3.org/2000/svg" xmlns:xlink="http://www.w3.org/1999/xlink">
<g id="graph1" class="graph" transform="scale(0.865385 0.865385) rotate(0) translate(4 94)">
<title>Fusion</title>
<polygon fill="white" stroke="white" points="-4,5 -4,-94 829,-94 829,5 -4,5"/>
<!-- 5c071a6b2c -->
<g id="node2" class="node"><title>5c071a6b2c</title>
<ellipse fill="none" stroke="black" cx="54" cy="-72" rx="53.0913" ry="18"/>
<text text-anchor="middle" x="54" y="-68.3" font-family="Times,serif" font-size="14.00">5c071a6b2c</text>
</g>
<!-- 103dba9760 -->
<g id="node4" class="node"><title>103dba9760</title>
<ellipse fill="none" stroke="black" cx="198" cy="-72" rx="53.8905" ry="18"/>
<text text-anchor="middle" x="198" y="-68.3" font-family="Times,serif" font-size="14.00">103dba9760</text>
</g>
<!-- 5c071a6b2c&#45;&gt;103dba9760 -->
<g id="edge3" class="edge"><title>5c071a6b2c&#45;&gt;103dba9760</title>
<path fill="none" stroke="black" d="M107.472,-72C115.99,-72 124.89,-72 133.634,-72"/>
<polygon fill="black" stroke="black" points="133.795,-75.5001 143.795,-72 133.795,-68.5001 133.795,-75.5001"/>
</g>
<!-- e974e8334e -->
<g id="node5" class="node"><title>e974e8334e</title>
<ellipse fill="none" stroke="black" cx="343" cy="-72" rx="53.0913" ry="18"/>
<text text-anchor="middle" x="343" y="-68.3" font-family="Times,serif" font-size="14.00">e974e8334e</text>
</g>
<!-- 103dba9760&#45;&gt;e974e8334e -->
<g id="edge4" class="edge"><title>103dba9760&#45;&gt;e974e8334e</title>
<path fill="none" stroke="black" d="M252.248,-72C261.133,-72 270.421,-72 279.511,-72"/>
<polygon fill="black" stroke="black" points="279.659,-75.5001 289.659,-72 279.659,-68.5001 279.659,-75.5001"/>
</g>
<!-- cf41c59ef2 -->
<g id="node6" class="node"><title>cf41c59ef2</title>
<ellipse fill="none" stroke="black" cx="488" cy="-72" rx="50.0912" ry="18"/>
<text text-anchor="middle" x="488" y="-68.3" font-family="Times,serif" font-size="14.00">cf41c59ef2</text>
</g>
<!-- e974e8334e&#45;&gt;cf41c59ef2 -->
<g id="edge5" class="edge"><title>e974e8334e&#45;&gt;cf41c59ef2</title>
<path fill="none" stroke="black" d="M396.436,-72C406.599,-72 417.317,-72 427.682,-72"/>
<polygon fill="black" stroke="black" points="427.897,-75.5001 437.897,-72 427.897,-68.5001 427.897,-75.5001"/>
</g>
<!-- 35ee8ce6b6 -->
<g id="node7" class="node"><title>35ee8ce6b6</title>
<ellipse fill="blue" stroke="blue" cx="631" cy="-72" rx="52.7911" ry="18"/>
<text text-anchor="middle" x="631" y="-68.3" font-family="Times,serif" font-size="14.00">35ee8ce6b6</text>
</g>
<!-- cf41c59ef2&#45;&gt;35ee8ce6b6 -->
<g id="edge6" class="edge"><title>cf41c59ef2&#45;&gt;35ee8ce6b6</title>
<path fill="none" stroke="black" d="M538.315,-72C547.863,-72 557.983,-72 567.88,-72"/>
<polygon fill="black" stroke="black" points="568.079,-75.5001 578.079,-72 568.079,-68.5001 568.079,-75.5001"/>
</g>
<!-- 8f48c3097f -->
<g id="node8" class="node"><title>8f48c3097f</title>
<ellipse fill="none" stroke="black" cx="772" cy="-72" rx="51.1914" ry="18"/>
<text text-anchor="middle" x="772" y="-68.3" font-family="Times,serif" font-size="14.00">8f48c3097f</text>
</g>
<!-- 35ee8ce6b6&#45;&gt;8f48c3097f -->
<g id="edge7" class="edge"><title>35ee8ce6b6&#45;&gt;8f48c3097f</title>
<path fill="none" stroke="black" d="M683.758,-72C692.413,-72 701.461,-72 710.315,-72"/>
<polygon fill="black" stroke="black" points="710.584,-75.5001 720.584,-72 710.584,-68.5001 710.584,-75.5001"/>
</g>
<!-- 9e59700d33 -->
<g id="node10" class="node"><title>9e59700d33</title>
<ellipse fill="none" stroke="black" cx="488" cy="-18" rx="53.8905" ry="18"/>
<text text-anchor="middle" x="488" y="-14.3" font-family="Times,serif" font-size="14.00">9e59700d33</text>
</g>
<!-- 9e59700d33&#45;&gt;35ee8ce6b6 -->
<g id="edge10" class="edge"><title>9e59700d33&#45;&gt;35ee8ce6b6</title>
<path fill="none" stroke="black" d="M524.217,-31.4872C542.863,-38.6282 565.945,-47.4685 585.786,-55.0671"/>
<polygon fill="black" stroke="black" points="584.642,-58.3767 595.232,-58.6847 587.146,-51.8397 584.642,-58.3767"/>
</g>
<!-- 9754d40473 -->
<g id="node12" class="node"><title>9754d40473</title>
<ellipse fill="none" stroke="black" cx="343" cy="-18" rx="54.6905" ry="18"/>
<text text-anchor="middle" x="343" y="-14.3" font-family="Times,serif" font-size="14.00">9754d40473</text>
</g>
<!-- 9754d40473&#45;&gt;9e59700d33 -->
<g id="edge12" class="edge"><title>9754d40473&#45;&gt;9e59700d33</title>
<path fill="none" stroke="black" d="M397.655,-18C406.199,-18 415.107,-18 423.846,-18"/>
<polygon fill="black" stroke="black" points="423.995,-21.5001 433.995,-18 423.995,-14.5001 423.995,-21.5001"/>
</g>
</g>
</svg>
