<?xml version="1.0" encoding="UTF-8" standalone="no"?>
<!DOCTYPE svg PUBLIC "-//W3C//DTD SVG 1.1//EN"
 "http://www.w3.org/Graphics/SVG/1.1/DTD/svg11.dtd">
<!-- Generated by graphviz version 2.28.0 (20120228.1926)
 -->
<!-- Title: Rebase Pages: 1 -->
<svg width="826pt" height="98pt"
 viewBox="0.00 0.00 826.00 98.00" xmlns="http://www.w3.org/2000/svg" xmlns:xlink="http://www.w3.org/1999/xlink">
<g id="graph1" class="graph" transform="scale(1 1) rotate(0) translate(4 94)">
<title>Rebase</title>
<polygon fill="white" stroke="white" points="-4,5 -4,-94 823,-94 823,5 -4,5"/>
<!-- cf41c59ef2 -->
<g id="node2" class="node"><title>cf41c59ef2</title>
<ellipse fill="blue" stroke="blue" cx="628" cy="-72" rx="50.0912" ry="18"/>
<text text-anchor="middle" x="628" y="-68.3" font-family="Times,serif" font-size="14.00">cf41c59ef2</text>
</g>
<!-- 8f48c3097f -->
<g id="node3" class="node"><title>8f48c3097f</title>
<ellipse fill="blue" stroke="blue" cx="766" cy="-72" rx="51.1914" ry="18"/>
<text text-anchor="middle" x="766" y="-68.3" font-family="Times,serif" font-size="14.00">8f48c3097f</text>
</g>
<!-- cf41c59ef2&#45;&gt;8f48c3097f -->
<g id="edge7" class="edge"><title>cf41c59ef2&#45;&gt;8f48c3097f</title>
<path fill="none" stroke="black" d="M678.099,-72C686.63,-72 695.592,-72 704.388,-72"/>
<polygon fill="black" stroke="black" points="704.6,-75.5001 714.6,-72 704.6,-68.5001 704.6,-75.5001"/>
</g>
<!-- 5c071a6b2c -->
<g id="node4" class="node"><title>5c071a6b2c</title>
<ellipse fill="none" stroke="black" cx="54" cy="-72" rx="53.0913" ry="18"/>
<text text-anchor="middle" x="54" y="-68.3" font-family="Times,serif" font-size="14.00">5c071a6b2c</text>
</g>
<!-- 968bda3251 -->
<g id="node6" class="node"><title>968bda3251</title>
<ellipse fill="none" stroke="black" cx="198" cy="-72" rx="53.8905" ry="18"/>
<text text-anchor="middle" x="198" y="-68.3" font-family="Times,serif" font-size="14.00">968bda3251</text>
</g>
<!-- 5c071a6b2c&#45;&gt;968bda3251 -->
<g id="edge3" class="edge"><title>5c071a6b2c&#45;&gt;968bda3251</title>
<path fill="none" stroke="black" d="M107.472,-72C115.99,-72 124.89,-72 133.634,-72"/>
<polygon fill="black" stroke="black" points="133.795,-75.5001 143.795,-72 133.795,-68.5001 133.795,-75.5001"/>
</g>
<!-- 103dba9760 -->
<g id="node7" class="node"><title>103dba9760</title>
<ellipse fill="none" stroke="black" cx="343" cy="-72" rx="53.8905" ry="18"/>
<text text-anchor="middle" x="343" y="-68.3" font-family="Times,serif" font-size="14.00">103dba9760</text>
</g>
<!-- 968bda3251&#45;&gt;103dba9760 -->
<g id="edge4" class="edge"><title>968bda3251&#45;&gt;103dba9760</title>
<path fill="none" stroke="black" d="M252.248,-72C260.809,-72 269.744,-72 278.517,-72"/>
<polygon fill="black" stroke="black" points="278.708,-75.5001 288.708,-72 278.708,-68.5001 278.708,-75.5001"/>
</g>
<!-- 9754d40473 -->
<g id="node11" class="node"><title>9754d40473</title>
<ellipse fill="red" stroke="red" cx="343" cy="-18" rx="54.6905" ry="18"/>
<text text-anchor="middle" x="343" y="-14.3" font-family="Times,serif" font-size="14.00">9754d40473</text>
</g>
<!-- 968bda3251&#45;&gt;9754d40473 -->
<g id="edge10" class="edge"><title>968bda3251&#45;&gt;9754d40473</title>
<path fill="none" stroke="black" d="M234.348,-58.6517C253.113,-51.5659 276.385,-42.7777 296.486,-35.1872"/>
<polygon fill="black" stroke="black" points="297.946,-38.377 306.065,-31.5698 295.473,-31.8283 297.946,-38.377"/>
</g>
<!-- e974e8334e -->
<g id="node8" class="node"><title>e974e8334e</title>
<ellipse fill="none" stroke="black" cx="488" cy="-72" rx="53.0913" ry="18"/>
<text text-anchor="middle" x="488" y="-68.3" font-family="Times,serif" font-size="14.00">e974e8334e</text>
</g>
<!-- 103dba9760&#45;&gt;e974e8334e -->
<g id="edge5" class="edge"><title>103dba9760&#45;&gt;e974e8334e</title>
<path fill="none" stroke="black" d="M397.248,-72C406.133,-72 415.421,-72 424.511,-72"/>
<polygon fill="black" stroke="black" points="424.659,-75.5001 434.659,-72 424.659,-68.5001 424.659,-75.5001"/>
</g>
<!-- e974e8334e&#45;&gt;cf41c59ef2 -->
<g id="edge6" class="edge"><title>e974e8334e&#45;&gt;cf41c59ef2</title>
<path fill="none" stroke="black" d="M541.566,-72C550.106,-72 559.003,-72 567.691,-72"/>
<polygon fill="black" stroke="black" points="567.76,-75.5001 577.76,-72 567.76,-68.5001 567.76,-75.5001"/>
</g>
<!-- 9e59700d33 -->
<g id="node12" class="node"><title>9e59700d33</title>
<ellipse fill="red" stroke="red" cx="488" cy="-18" rx="53.8905" ry="18"/>
<text text-anchor="middle" x="488" y="-14.3" font-family="Times,serif" font-size="14.00">9e59700d33</text>
</g>
<!-- 9754d40473&#45;&gt;9e59700d33 -->
<g id="edge12" class="edge"><title>9754d40473&#45;&gt;9e59700d33</title>
<path fill="none" stroke="black" d="M397.655,-18C406.199,-18 415.107,-18 423.846,-18"/>
<polygon fill="black" stroke="black" points="423.995,-21.5001 433.995,-18 423.995,-14.5001 423.995,-21.5001"/>
</g>
</g>
</svg>
