<?xml version="1.0" encoding="UTF-8" standalone="no"?>
<!DOCTYPE svg PUBLIC "-//W3C//DTD SVG 1.1//EN"
 "http://www.w3.org/Graphics/SVG/1.1/DTD/svg11.dtd">
<!-- Generated by graphviz version 2.28.0 (20120228.1926)
 -->
<!-- Title: G Pages: 1 -->
<svg width="832pt" height="98pt"
 viewBox="0.00 0.00 832.00 98.00" xmlns="http://www.w3.org/2000/svg" xmlns:xlink="http://www.w3.org/1999/xlink">
<g id="graph1" class="graph" transform="scale(1 1) rotate(0) translate(4 94)">
<title>G</title>
<polygon fill="white" stroke="white" points="-4,5 -4,-94 829,-94 829,5 -4,5"/>
<!-- 5c071a6b2c -->
<g id="node1" class="node"><title>5c071a6b2c</title>
<ellipse fill="none" stroke="black" cx="54" cy="-45" rx="53.0913" ry="18"/>
<text text-anchor="middle" x="54" y="-41.3" font-family="Times,serif" font-size="14.00">5c071a6b2c</text>
</g>
<!-- 968bda3251 -->
<g id="node3" class="node"><title>968bda3251</title>
<ellipse fill="none" stroke="black" cx="198" cy="-45" rx="53.8905" ry="18"/>
<text text-anchor="middle" x="198" y="-41.3" font-family="Times,serif" font-size="14.00">968bda3251</text>
</g>
<!-- 5c071a6b2c&#45;&gt;968bda3251 -->
<g id="edge2" class="edge"><title>5c071a6b2c&#45;&gt;968bda3251</title>
<path fill="none" stroke="black" d="M107.472,-45C115.99,-45 124.89,-45 133.634,-45"/>
<polygon fill="black" stroke="black" points="133.795,-48.5001 143.795,-45 133.795,-41.5001 133.795,-48.5001"/>
</g>
<!-- 103dba9760 -->
<g id="node4" class="node"><title>103dba9760</title>
<ellipse fill="none" stroke="black" cx="343" cy="-72" rx="53.8905" ry="18"/>
<text text-anchor="middle" x="343" y="-68.3" font-family="Times,serif" font-size="14.00">103dba9760</text>
</g>
<!-- 968bda3251&#45;&gt;103dba9760 -->
<g id="edge3" class="edge"><title>968bda3251&#45;&gt;103dba9760</title>
<path fill="none" stroke="black" d="M245.428,-53.7661C258.296,-56.1957 272.403,-58.8594 285.765,-61.3823"/>
<polygon fill="black" stroke="black" points="285.329,-64.8617 295.805,-63.2779 286.628,-57.9832 285.329,-64.8617"/>
</g>
<!-- 9754d40473 -->
<g id="node9" class="node"><title>9754d40473</title>
<ellipse fill="none" stroke="black" cx="343" cy="-18" rx="54.6905" ry="18"/>
<text text-anchor="middle" x="343" y="-14.3" font-family="Times,serif" font-size="14.00">9754d40473</text>
</g>
<!-- 968bda3251&#45;&gt;9754d40473 -->
<g id="edge8" class="edge"><title>968bda3251&#45;&gt;9754d40473</title>
<path fill="none" stroke="black" d="M245.428,-36.2339C258.166,-33.8289 272.119,-31.1944 285.36,-28.6942"/>
<polygon fill="black" stroke="black" points="286.139,-32.1092 295.316,-26.8145 284.84,-25.2307 286.139,-32.1092"/>
</g>
<!-- e974e8334e -->
<g id="node5" class="node"><title>e974e8334e</title>
<ellipse fill="none" stroke="black" cx="488" cy="-72" rx="53.0913" ry="18"/>
<text text-anchor="middle" x="488" y="-68.3" font-family="Times,serif" font-size="14.00">e974e8334e</text>
</g>
<!-- 103dba9760&#45;&gt;e974e8334e -->
<g id="edge4" class="edge"><title>103dba9760&#45;&gt;e974e8334e</title>
<path fill="none" stroke="black" d="M397.248,-72C406.133,-72 415.421,-72 424.511,-72"/>
<polygon fill="black" stroke="black" points="424.659,-75.5001 434.659,-72 424.659,-68.5001 424.659,-75.5001"/>
</g>
<!-- cf41c59ef2 -->
<g id="node6" class="node"><title>cf41c59ef2</title>
<ellipse fill="none" stroke="black" cx="631" cy="-72" rx="50.0912" ry="18"/>
<text text-anchor="middle" x="631" y="-68.3" font-family="Times,serif" font-size="14.00">cf41c59ef2</text>
</g>
<!-- e974e8334e&#45;&gt;cf41c59ef2 -->
<g id="edge5" class="edge"><title>e974e8334e&#45;&gt;cf41c59ef2</title>
<path fill="none" stroke="black" d="M541.503,-72C550.933,-72 560.823,-72 570.436,-72"/>
<polygon fill="black" stroke="black" points="570.722,-75.5001 580.722,-72 570.722,-68.5001 570.722,-75.5001"/>
</g>
<!-- 8f48c3097f -->
<g id="node7" class="node"><title>8f48c3097f</title>
<ellipse fill="none" stroke="black" cx="772" cy="-72" rx="51.1914" ry="18"/>
<text text-anchor="middle" x="772" y="-68.3" font-family="Times,serif" font-size="14.00">8f48c3097f</text>
</g>
<!-- cf41c59ef2&#45;&gt;8f48c3097f -->
<g id="edge6" class="edge"><title>cf41c59ef2&#45;&gt;8f48c3097f</title>
<path fill="none" stroke="black" d="M681.398,-72C690.681,-72 700.488,-72 710.074,-72"/>
<polygon fill="black" stroke="black" points="710.354,-75.5001 720.354,-72 710.354,-68.5001 710.354,-75.5001"/>
</g>
<!-- 9e59700d33 -->
<g id="node10" class="node"><title>9e59700d33</title>
<ellipse fill="none" stroke="black" cx="488" cy="-18" rx="53.8905" ry="18"/>
<text text-anchor="middle" x="488" y="-14.3" font-family="Times,serif" font-size="14.00">9e59700d33</text>
</g>
<!-- 9754d40473&#45;&gt;9e59700d33 -->
<g id="edge9" class="edge"><title>9754d40473&#45;&gt;9e59700d33</title>
<path fill="none" stroke="black" d="M397.655,-18C406.199,-18 415.107,-18 423.846,-18"/>
<polygon fill="black" stroke="black" points="423.995,-21.5001 433.995,-18 423.995,-14.5001 423.995,-21.5001"/>
</g>
<!-- 35ee8ce6b6 -->
<g id="node11" class="node"><title>35ee8ce6b6</title>
<ellipse fill="none" stroke="black" cx="631" cy="-18" rx="52.7911" ry="18"/>
<text text-anchor="middle" x="631" y="-14.3" font-family="Times,serif" font-size="14.00">35ee8ce6b6</text>
</g>
<!-- 9e59700d33&#45;&gt;35ee8ce6b6 -->
<g id="edge10" class="edge"><title>9e59700d33&#45;&gt;35ee8ce6b6</title>
<path fill="none" stroke="black" d="M542.306,-18C550.623,-18 559.279,-18 567.773,-18"/>
<polygon fill="black" stroke="black" points="568.019,-21.5001 578.019,-18 568.019,-14.5001 568.019,-21.5001"/>
</g>
</g>
</svg>
