<?xml version="1.0" encoding="UTF-8" standalone="no"?>
<!DOCTYPE svg PUBLIC "-//W3C//DTD SVG 1.1//EN"
 "http://www.w3.org/Graphics/SVG/1.1/DTD/svg11.dtd">
<!-- Generated by graphviz version 2.28.0 (20120228.1926)
 -->
<!-- Title: Branchement et fusion Pages: 1 -->
<svg width="720pt" height="86pt"
 viewBox="0.00 0.00 720.00 86.09" xmlns="http://www.w3.org/2000/svg" xmlns:xlink="http://www.w3.org/1999/xlink">
<g id="graph1" class="graph" transform="scale(0.869565 0.869565) rotate(0) translate(4 95)">
<title>Branchement et fusion</title>
<polygon fill="white" stroke="white" points="-4,5 -4,-95 825,-95 825,5 -4,5"/>
<!-- 5c071a6b2c -->
<g id="node2" class="node"><title>5c071a6b2c</title>
<ellipse fill="none" stroke="black" cx="54" cy="-73" rx="53.0913" ry="18"/>
<text text-anchor="middle" x="54" y="-69.3" font-family="Times,serif" font-size="14.00">5c071a6b2c</text>
</g>
<!-- 968bda3251 -->
<g id="node4" class="node"><title>968bda3251</title>
<ellipse fill="none" stroke="black" cx="198" cy="-73" rx="53.8905" ry="18"/>
<text text-anchor="middle" x="198" y="-69.3" font-family="Times,serif" font-size="14.00">968bda3251</text>
</g>
<!-- 5c071a6b2c&#45;&gt;968bda3251 -->
<g id="edge3" class="edge"><title>5c071a6b2c&#45;&gt;968bda3251</title>
<path fill="none" stroke="black" d="M107.472,-73C115.99,-73 124.89,-73 133.634,-73"/>
<polygon fill="black" stroke="black" points="133.795,-76.5001 143.795,-73 133.795,-69.5001 133.795,-76.5001"/>
</g>
<!-- 103dba9760 -->
<g id="node5" class="node"><title>103dba9760</title>
<ellipse fill="none" stroke="black" cx="343" cy="-73" rx="53.8905" ry="18"/>
<text text-anchor="middle" x="343" y="-69.3" font-family="Times,serif" font-size="14.00">103dba9760</text>
</g>
<!-- 968bda3251&#45;&gt;103dba9760 -->
<g id="edge4" class="edge"><title>968bda3251&#45;&gt;103dba9760</title>
<path fill="none" stroke="black" d="M252.248,-73C260.809,-73 269.744,-73 278.517,-73"/>
<polygon fill="black" stroke="black" points="278.708,-76.5001 288.708,-73 278.708,-69.5001 278.708,-76.5001"/>
</g>
<!-- 9754d40473 -->
<g id="node11" class="node"><title>9754d40473</title>
<ellipse fill="none" stroke="black" cx="343" cy="-18" rx="54.6905" ry="18"/>
<text text-anchor="middle" x="343" y="-14.3" font-family="Times,serif" font-size="14.00">9754d40473</text>
</g>
<!-- 968bda3251&#45;&gt;9754d40473 -->
<g id="edge10" class="edge"><title>968bda3251&#45;&gt;9754d40473</title>
<path fill="none" stroke="black" d="M233.982,-59.5455C253.112,-52.1878 277.009,-42.9964 297.46,-35.1309"/>
<polygon fill="black" stroke="black" points="298.807,-38.3628 306.884,-31.5062 296.294,-31.8294 298.807,-38.3628"/>
</g>
<!-- e974e8334e -->
<g id="node6" class="node"><title>e974e8334e</title>
<ellipse fill="none" stroke="black" cx="488" cy="-73" rx="53.0913" ry="18"/>
<text text-anchor="middle" x="488" y="-69.3" font-family="Times,serif" font-size="14.00">e974e8334e</text>
</g>
<!-- 103dba9760&#45;&gt;e974e8334e -->
<g id="edge5" class="edge"><title>103dba9760&#45;&gt;e974e8334e</title>
<path fill="none" stroke="black" d="M397.248,-73C406.133,-73 415.421,-73 424.511,-73"/>
<polygon fill="black" stroke="black" points="424.659,-76.5001 434.659,-73 424.659,-69.5001 424.659,-76.5001"/>
</g>
<!-- cf41c59ef2 -->
<g id="node7" class="node"><title>cf41c59ef2</title>
<ellipse fill="none" stroke="black" cx="628" cy="-73" rx="50.0912" ry="18"/>
<text text-anchor="middle" x="628" y="-69.3" font-family="Times,serif" font-size="14.00">cf41c59ef2</text>
</g>
<!-- e974e8334e&#45;&gt;cf41c59ef2 -->
<g id="edge6" class="edge"><title>e974e8334e&#45;&gt;cf41c59ef2</title>
<path fill="none" stroke="black" d="M541.566,-73C550.106,-73 559.003,-73 567.691,-73"/>
<polygon fill="black" stroke="black" points="567.76,-76.5001 577.76,-73 567.76,-69.5001 567.76,-76.5001"/>
</g>
<!-- 8f48c3097f -->
<g id="node8" class="node"><title>8f48c3097f</title>
<ellipse fill="none" stroke="black" cx="767" cy="-73" rx="51.1914" ry="18"/>
<text text-anchor="middle" x="767" y="-69.3" font-family="Times,serif" font-size="14.00">8f48c3097f</text>
</g>
<!-- cf41c59ef2&#45;&gt;8f48c3097f -->
<g id="edge7" class="edge"><title>cf41c59ef2&#45;&gt;8f48c3097f</title>
<path fill="none" stroke="black" d="M678.073,-73C686.887,-73 696.169,-73 705.266,-73"/>
<polygon fill="black" stroke="black" points="705.423,-76.5001 715.423,-73 705.423,-69.5001 705.423,-76.5001"/>
</g>
<!-- 9e59700d33 -->
<g id="node12" class="node"><title>9e59700d33</title>
<ellipse fill="none" stroke="black" cx="488" cy="-18" rx="53.8905" ry="18"/>
<text text-anchor="middle" x="488" y="-14.3" font-family="Times,serif" font-size="14.00">9e59700d33</text>
</g>
<!-- 9754d40473&#45;&gt;9e59700d33 -->
<g id="edge14" class="edge"><title>9754d40473&#45;&gt;9e59700d33</title>
<path fill="none" stroke="black" d="M397.655,-18C406.199,-18 415.107,-18 423.846,-18"/>
<polygon fill="black" stroke="black" points="423.995,-21.5001 433.995,-18 423.995,-14.5001 423.995,-21.5001"/>
</g>
<!-- 35ee8ce6b6 -->
<g id="node14" class="node"><title>35ee8ce6b6</title>
<ellipse fill="none" stroke="black" cx="767" cy="-19" rx="52.7911" ry="18"/>
<text text-anchor="middle" x="767" y="-15.3" font-family="Times,serif" font-size="14.00">35ee8ce6b6</text>
</g>
<!-- 9e59700d33&#45;&gt;35ee8ce6b6 -->
<g id="edge12" class="edge"><title>9e59700d33&#45;&gt;35ee8ce6b6</title>
<path fill="none" stroke="black" d="M542.081,-18.1916C588.279,-18.3584 655.28,-18.6003 703.945,-18.776"/>
<polygon fill="black" stroke="black" points="704.025,-22.2762 714.037,-18.8124 704.05,-15.2762 704.025,-22.2762"/>
</g>
</g>
</svg>
