<?xml version="1.0" encoding="UTF-8" standalone="no"?>
<!DOCTYPE svg PUBLIC "-//W3C//DTD SVG 1.1//EN"
 "http://www.w3.org/Graphics/SVG/1.1/DTD/svg11.dtd">
<!-- Generated by graphviz version 2.28.0 (20120228.1926)
 -->
<!-- Title: G Pages: 1 -->
<svg width="832pt" height="98pt"
 viewBox="0.00 0.00 832.00 98.00" xmlns="http://www.w3.org/2000/svg" xmlns:xlink="http://www.w3.org/1999/xlink">
<g id="graph1" class="graph" transform="scale(1 1) rotate(0) translate(4 94)">
<title>G</title>
<polygon fill="white" stroke="white" points="-4,5 -4,-94 829,-94 829,5 -4,5"/>
<!-- 5c071a6b2c -->
<g id="node1" class="node"><title>5c071a6b2c</title>
<ellipse fill="none" stroke="black" cx="54" cy="-72" rx="53.0913" ry="18"/>
<text text-anchor="middle" x="54" y="-68.3" font-family="Times,serif" font-size="14.00">5c071a6b2c</text>
</g>
<!-- 103dba9760 -->
<g id="node3" class="node"><title>103dba9760</title>
<ellipse fill="none" stroke="black" cx="198" cy="-72" rx="53.8905" ry="18"/>
<text text-anchor="middle" x="198" y="-68.3" font-family="Times,serif" font-size="14.00">103dba9760</text>
</g>
<!-- 5c071a6b2c&#45;&gt;103dba9760 -->
<g id="edge2" class="edge"><title>5c071a6b2c&#45;&gt;103dba9760</title>
<path fill="none" stroke="black" d="M107.472,-72C115.99,-72 124.89,-72 133.634,-72"/>
<polygon fill="black" stroke="black" points="133.795,-75.5001 143.795,-72 133.795,-68.5001 133.795,-75.5001"/>
</g>
<!-- e974e8334e -->
<g id="node4" class="node"><title>e974e8334e</title>
<ellipse fill="none" stroke="black" cx="343" cy="-72" rx="53.0913" ry="18"/>
<text text-anchor="middle" x="343" y="-68.3" font-family="Times,serif" font-size="14.00">e974e8334e</text>
</g>
<!-- 103dba9760&#45;&gt;e974e8334e -->
<g id="edge3" class="edge"><title>103dba9760&#45;&gt;e974e8334e</title>
<path fill="none" stroke="black" d="M252.248,-72C261.133,-72 270.421,-72 279.511,-72"/>
<polygon fill="black" stroke="black" points="279.659,-75.5001 289.659,-72 279.659,-68.5001 279.659,-75.5001"/>
</g>
<!-- cf41c59ef2 -->
<g id="node5" class="node"><title>cf41c59ef2</title>
<ellipse fill="none" stroke="black" cx="488" cy="-72" rx="50.0912" ry="18"/>
<text text-anchor="middle" x="488" y="-68.3" font-family="Times,serif" font-size="14.00">cf41c59ef2</text>
</g>
<!-- e974e8334e&#45;&gt;cf41c59ef2 -->
<g id="edge4" class="edge"><title>e974e8334e&#45;&gt;cf41c59ef2</title>
<path fill="none" stroke="black" d="M396.436,-72C406.599,-72 417.317,-72 427.682,-72"/>
<polygon fill="black" stroke="black" points="427.897,-75.5001 437.897,-72 427.897,-68.5001 427.897,-75.5001"/>
</g>
<!-- 35ee8ce6b6 -->
<g id="node6" class="node"><title>35ee8ce6b6</title>
<ellipse fill="none" stroke="black" cx="631" cy="-45" rx="52.7911" ry="18"/>
<text text-anchor="middle" x="631" y="-41.3" font-family="Times,serif" font-size="14.00">35ee8ce6b6</text>
</g>
<!-- cf41c59ef2&#45;&gt;35ee8ce6b6 -->
<g id="edge5" class="edge"><title>cf41c59ef2&#45;&gt;35ee8ce6b6</title>
<path fill="none" stroke="black" d="M532.455,-63.6788C545.738,-61.1353 560.531,-58.3026 574.5,-55.6277"/>
<polygon fill="black" stroke="black" points="575.329,-59.0326 584.492,-53.7143 574.012,-52.1575 575.329,-59.0326"/>
</g>
<!-- 8f48c3097f -->
<g id="node7" class="node"><title>8f48c3097f</title>
<ellipse fill="none" stroke="black" cx="772" cy="-45" rx="51.1914" ry="18"/>
<text text-anchor="middle" x="772" y="-41.3" font-family="Times,serif" font-size="14.00">8f48c3097f</text>
</g>
<!-- 35ee8ce6b6&#45;&gt;8f48c3097f -->
<g id="edge6" class="edge"><title>35ee8ce6b6&#45;&gt;8f48c3097f</title>
<path fill="none" stroke="black" d="M683.758,-45C692.413,-45 701.461,-45 710.315,-45"/>
<polygon fill="black" stroke="black" points="710.584,-48.5001 720.584,-45 710.584,-41.5001 710.584,-48.5001"/>
</g>
<!-- 9754d40473 -->
<g id="node8" class="node"><title>9754d40473</title>
<ellipse fill="none" stroke="black" cx="343" cy="-18" rx="54.6905" ry="18"/>
<text text-anchor="middle" x="343" y="-14.3" font-family="Times,serif" font-size="14.00">9754d40473</text>
</g>
<!-- 9e59700d33 -->
<g id="node10" class="node"><title>9e59700d33</title>
<ellipse fill="none" stroke="black" cx="488" cy="-18" rx="53.8905" ry="18"/>
<text text-anchor="middle" x="488" y="-14.3" font-family="Times,serif" font-size="14.00">9e59700d33</text>
</g>
<!-- 9754d40473&#45;&gt;9e59700d33 -->
<g id="edge8" class="edge"><title>9754d40473&#45;&gt;9e59700d33</title>
<path fill="none" stroke="black" d="M397.655,-18C406.199,-18 415.107,-18 423.846,-18"/>
<polygon fill="black" stroke="black" points="423.995,-21.5001 433.995,-18 423.995,-14.5001 423.995,-21.5001"/>
</g>
<!-- 9e59700d33&#45;&gt;35ee8ce6b6 -->
<g id="edge9" class="edge"><title>9e59700d33&#45;&gt;35ee8ce6b6</title>
<path fill="none" stroke="black" d="M535.169,-26.8408C547.841,-29.2674 561.709,-31.9229 574.832,-34.4359"/>
<polygon fill="black" stroke="black" points="574.21,-37.8803 584.69,-36.3235 575.526,-31.0052 574.21,-37.8803"/>
</g>
</g>
</svg>
