<?xml version="1.0" encoding="UTF-8" standalone="no"?>
<!DOCTYPE svg PUBLIC "-//W3C//DTD SVG 1.1//EN"
 "http://www.w3.org/Graphics/SVG/1.1/DTD/svg11.dtd">
<!-- Generated by graphviz version 2.28.0 (20120228.1926)
 -->
<!-- Title: Commits linéaires Pages: 1 -->
<svg width="720pt" height="46pt"
 viewBox="0.00 0.00 720.00 45.91" xmlns="http://www.w3.org/2000/svg" xmlns:xlink="http://www.w3.org/1999/xlink">
<g id="graph1" class="graph" transform="scale(1.04348 1.04348) rotate(0) translate(4 40)">
<title>Commits linéaires</title>
<polygon fill="white" stroke="white" points="-4,5 -4,-40 687,-40 687,5 -4,5"/>
<!-- 5c071a6b2c -->
<g id="node1" class="node"><title>5c071a6b2c</title>
<ellipse fill="none" stroke="black" cx="54" cy="-18" rx="53.0913" ry="18"/>
<text text-anchor="middle" x="54" y="-14.3" font-family="Times,serif" font-size="14.00">5c071a6b2c</text>
</g>
<!-- 968bda3251 -->
<g id="node3" class="node"><title>968bda3251</title>
<ellipse fill="none" stroke="black" cx="198" cy="-18" rx="53.8905" ry="18"/>
<text text-anchor="middle" x="198" y="-14.3" font-family="Times,serif" font-size="14.00">968bda3251</text>
</g>
<!-- 5c071a6b2c&#45;&gt;968bda3251 -->
<g id="edge2" class="edge"><title>5c071a6b2c&#45;&gt;968bda3251</title>
<path fill="none" stroke="black" d="M107.472,-18C115.99,-18 124.89,-18 133.634,-18"/>
<polygon fill="black" stroke="black" points="133.795,-21.5001 143.795,-18 133.795,-14.5001 133.795,-21.5001"/>
</g>
<!-- 9754d40473 -->
<g id="node4" class="node"><title>9754d40473</title>
<ellipse fill="none" stroke="black" cx="343" cy="-18" rx="54.6905" ry="18"/>
<text text-anchor="middle" x="343" y="-14.3" font-family="Times,serif" font-size="14.00">9754d40473</text>
</g>
<!-- 968bda3251&#45;&gt;9754d40473 -->
<g id="edge3" class="edge"><title>968bda3251&#45;&gt;9754d40473</title>
<path fill="none" stroke="black" d="M252.248,-18C260.695,-18 269.506,-18 278.166,-18"/>
<polygon fill="black" stroke="black" points="278.231,-21.5001 288.231,-18 278.231,-14.5001 278.231,-21.5001"/>
</g>
<!-- 9e59700d33 -->
<g id="node5" class="node"><title>9e59700d33</title>
<ellipse fill="none" stroke="black" cx="488" cy="-18" rx="53.8905" ry="18"/>
<text text-anchor="middle" x="488" y="-14.3" font-family="Times,serif" font-size="14.00">9e59700d33</text>
</g>
<!-- 9754d40473&#45;&gt;9e59700d33 -->
<g id="edge4" class="edge"><title>9754d40473&#45;&gt;9e59700d33</title>
<path fill="none" stroke="black" d="M397.655,-18C406.199,-18 415.107,-18 423.846,-18"/>
<polygon fill="black" stroke="black" points="423.995,-21.5001 433.995,-18 423.995,-14.5001 423.995,-21.5001"/>
</g>
<!-- 2a3242efa4 -->
<g id="node6" class="node"><title>2a3242efa4</title>
<ellipse fill="none" stroke="black" cx="630" cy="-18" rx="51.9908" ry="18"/>
<text text-anchor="middle" x="630" y="-14.3" font-family="Times,serif" font-size="14.00">2a3242efa4</text>
</g>
<!-- 9e59700d33&#45;&gt;2a3242efa4 -->
<g id="edge5" class="edge"><title>9e59700d33&#45;&gt;2a3242efa4</title>
<path fill="none" stroke="black" d="M542.327,-18C550.568,-18 559.136,-18 567.537,-18"/>
<polygon fill="black" stroke="black" points="567.669,-21.5001 577.669,-18 567.669,-14.5001 567.669,-21.5001"/>
</g>
</g>
</svg>
